<svg xmlns="http://www.w3.org/2000/svg" viewBox="0 0 785.25 544.02"><defs><style>.cls-1,.cls-23,.cls-32,.cls-33,.cls-34{fill:#fff;}.cls-1,.cls-21,.cls-31,.cls-32,.cls-33,.cls-34{stroke:#ff6b27;}.cls-1,.cls-20,.cls-21,.cls-22,.cls-23,.cls-31,.cls-32,.cls-33,.cls-34{stroke-miterlimit:10;}.cls-1,.cls-23{stroke-width:11.34px;}.cls-2{fill:#ededee;}.cls-3{font-size:54.21px;}.cls-19,.cls-24,.cls-3,.cls-35,.cls-8{fill:#ff6b27;}.cls-11,.cls-24,.cls-3,.cls-35,.cls-8{font-family:Roboto-Bold, Roboto;font-weight:700;}.cls-11,.cls-25,.cls-4{font-size:13.87px;fill:#1d1d1b;}.cls-25,.cls-4{font-family:Roboto-Regular, Roboto;}.cls-4{font-weight:400;}.cls-5{letter-spacing:-0.01em;}.cls-6{letter-spacing:0em;}.cls-7{letter-spacing:-0.01em;}.cls-8{font-size:44.12px;}.cls-9{letter-spacing:0.01em;}.cls-10{letter-spacing:0em;}.cls-12{letter-spacing:-0.01em;}.cls-13{letter-spacing:-0.06em;}.cls-14{letter-spacing:0em;}.cls-15{letter-spacing:-0.01em;}.cls-16{letter-spacing:-0.01em;}.cls-17{letter-spacing:-0.03em;}.cls-18{letter-spacing:-0.01em;}.cls-20,.cls-21,.cls-22,.cls-31{fill:none;}.cls-20,.cls-22,.cls-23{stroke:#ededee;}.cls-20,.cls-21{stroke-width:11.5px;}.cls-22,.cls-31,.cls-33{stroke-width:5.67px;}.cls-24{font-size:34.04px;}.cls-26{letter-spacing:-0.02em;}.cls-27{letter-spacing:-0.01em;}.cls-28{letter-spacing:-0.01em;}.cls-29{letter-spacing:-0.01em;}.cls-30{letter-spacing:-0.01em;}.cls-32{stroke-width:4.68px;}.cls-33,.cls-34{stroke-linecap:round;}.cls-34{stroke-width:2.83px;}.cls-35{font-size:17.65px;}.cls-36{letter-spacing:-0.02em;}.cls-37{letter-spacing:-0.01em;}.cls-38{letter-spacing:0em;}.cls-39{letter-spacing:-0.01em;}.cls-40,.cls-41{fill:#01246f;}.cls-40{fill-rule:evenodd;}</style></defs><g id="Calque_2" data-name="Calque 2"><g id="Calque_1-2" data-name="Calque 1"><circle class="cls-1" cx="643.4" cy="261.26" r="136.19"/><circle class="cls-2" cx="128.51" cy="259.04" r="128.51"/><text class="cls-3" transform="translate(50.27 220.91)">0,68%<tspan class="cls-4"><tspan x="0" y="25.21">de </tspan><tspan class="cls-5" x="18.6" y="25.21">v</tspan><tspan class="cls-6" x="25.21" y="25.21">ot</tspan><tspan class="cls-7" x="37.65" y="25.21">r</tspan><tspan x="42.22" y="25.21">e Masse Salariale </tspan><tspan x="0" y="41.6">brute 2021</tspan></tspan></text><text class="cls-8" transform="translate(571.12 305.83)">31 <tspan class="cls-9" x="61.61" y="0">M</tspan><tspan class="cls-10" x="100.65" y="0">AI</tspan><tspan x="20.97" y="45.38">2022</tspan></text><text class="cls-11" transform="translate(552.94 243.56)"><tspan class="cls-12">D</tspan><tspan class="cls-13" x="8.87" y="0">A</tspan><tspan class="cls-14" x="17.39" y="0">TE LIM</tspan><tspan class="cls-15" x="60.92" y="0">I</tspan><tspan x="64.76" y="0">TE DE VERSEME</tspan><tspan class="cls-16" x="166.85" y="0">N</tspan><tspan class="cls-17" x="176.44" y="0">T</tspan><tspan x="50.15" y="17.65">DE </tspan><tspan class="cls-18" x="70.42" y="17.65">V</tspan><tspan x="79.39" y="17.65">OS 13% :</tspan></text><path class="cls-19" d="M128.51,259H257s2.63,54.22-40.82,93.8Z"/><path class="cls-20" d="M128.51,111.54c81.46,0,147.5,65,147.5,146.5a147,147,0,0,1-43.2,104.3"/><path class="cls-21" d="M276,258a147,147,0,0,1-43.2,104.3"/><line class="cls-22" x1="245.4" y1="167.44" x2="324.56" y2="99.89"/><circle class="cls-23" cx="358.33" cy="79.84" r="74.17"/><circle class="cls-1" cx="454.9" cy="283" r="83.83"/><text class="cls-24" transform="translate(333.44 57.01)">87%</text><text class="cls-25" transform="translate(345.37 74.41)">pour <tspan x="-32.65" y="16.39">l</tspan><tspan class="cls-26" x="-29.28" y="16.39">’</tspan><tspan x="-26.85" y="16.39">app</tspan><tspan class="cls-27" x="-3.75" y="16.39">r</tspan><tspan x="0.81" y="16.39">entissage </tspan><tspan class="cls-18" x="-11.63" y="32.78">v</tspan><tspan x="-5" y="32.78">ersés à </tspan><tspan class="cls-28" x="-21.61" y="49.16">v</tspan><tspan x="-14.99" y="49.16">ot</tspan><tspan class="cls-7" x="-2.55" y="49.16">r</tspan><tspan x="2.01" y="49.16">e OPCO</tspan></text><text class="cls-24" transform="translate(425.89 251.49)">13%</text><text class="cls-25" transform="translate(437.82 268.9)">pour <tspan x="-30.49" y="16.39">les formations </tspan><tspan x="-41.03" y="32.78">technologiques et</tspan><tspan x="-36.83" y="49.16">p</tspan><tspan class="cls-29" x="-29.05" y="49.16">r</tspan><tspan x="-24.5" y="49.16">o</tspan><tspan class="cls-30" x="-16.59" y="49.16">f</tspan><tspan x="-11.94" y="49.16">essionnelles</tspan><tspan x="-9.83" y="65.55">initiales</tspan></text><line class="cls-31" x1="274.95" y1="281.42" x2="378.38" y2="281.42"/><rect class="cls-32" x="619.95" y="162.39" width="44.46" height="46.93" rx="2.12"/><rect class="cls-19" x="619.01" y="164.27" width="45.38" height="16.89"/><line class="cls-33" x1="653.84" y1="172.72" x2="653.84" y2="157.47"/><line class="cls-33" x1="630.85" y1="172.72" x2="630.85" y2="157.47"/><polyline class="cls-34" points="651.2 187.67 640.47 197.69 635.54 194"/><line class="cls-31" x1="454.9" y1="366.84" x2="454.9" y2="417.21"/><text class="cls-35" transform="translate(360.75 445.25)"><tspan class="cls-36">V</tspan><tspan x="11.16" y="0">ersés di</tspan><tspan class="cls-37" x="73.84" y="0">r</tspan><tspan class="cls-38" x="80.12" y="0">ectement aux</tspan><tspan x="33.03" y="21.43">établissements</tspan><tspan x="2.46" y="42.86">éligibles de </tspan><tspan class="cls-39" x="97.62" y="42.86">v</tspan><tspan class="cls-38" x="106.41" y="42.86">ot</tspan><tspan class="cls-37" x="122.35" y="42.86">r</tspan><tspan class="cls-38" x="128.62" y="42.86">e choix</tspan></text><path class="cls-40" d="M316,513.06a1,1,0,1,1,0,2.08,1,1,0,0,1-1-1,1.06,1.06,0,0,1,1-1Z"/><path class="cls-41" d="M319.21,515.14h.16a1.05,1.05,0,0,0,.88-1.2,1.05,1.05,0,1,0-2.08.33,1.05,1.05,0,0,0,1,.87Z"/><path class="cls-41" d="M322.24,515.12a1.1,1.1,0,0,0,.25,0A1,1,0,0,0,323,515a1.12,1.12,0,0,0,.46-.66,1,1,0,0,0-.13-.79,1.2,1.2,0,0,0-.66-.47,1.05,1.05,0,0,0-.79.14,1.12,1.12,0,0,0-.47.66,1,1,0,0,0,.79,1.26Z"/><path class="cls-41" d="M342.11,515.23h0l7.5-.06a1.15,1.15,0,0,0,0-2.3l-7.47.06a1.14,1.14,0,0,0-.82,1.94.93.93,0,0,0,.79.36Z"/><path class="cls-40" d="M316,520.4a1,1,0,1,1-1,1A1,1,0,0,1,316,520.4Z"/><path class="cls-41" d="M319.21,522.45h.16a1.16,1.16,0,1,0-.16,0Z"/><path class="cls-41" d="M322.24,522.42a.74.74,0,0,0,.25,0,1,1,0,0,0,.55-.16,1.18,1.18,0,0,0,.46-.66,1,1,0,0,0-.13-.79,1.15,1.15,0,0,0-.66-.47,1,1,0,0,0-.79.14,1.1,1.1,0,0,0-.47.65,1,1,0,0,0,.79,1.26Z"/><path class="cls-41" d="M342.11,522.53h0l7.5,0a1.15,1.15,0,1,0,0-2.3l-7.47.05a1.16,1.16,0,0,0-1.15,1.15,1.19,1.19,0,0,0,.33.8.92.92,0,0,0,.79.35Z"/><path class="cls-41" d="M316,529.87a1,1,0,1,0,0-2.08,1,1,0,0,0-1,1A1.05,1.05,0,0,0,316,529.87Z"/><path class="cls-41" d="M318.58,529.65a1,1,0,0,0,.63.22h.16a1,1,0,0,0,.69-.41,1.08,1.08,0,0,0,.19-.8,1,1,0,0,0-.41-.68,1,1,0,0,0-.8-.19,1,1,0,0,0-.68.41,1,1,0,0,0-.19.79,1.11,1.11,0,0,0,.41.66Z"/><path class="cls-41" d="M322.24,529.81a.74.74,0,0,0,.25,0,1,1,0,0,0,.55-.16,1.18,1.18,0,0,0,.46-.66,1.05,1.05,0,0,0-2.05-.47,1.06,1.06,0,0,0,.79,1.26Z"/><path class="cls-41" d="M342.11,529.92h0l7.5,0a1.15,1.15,0,0,0,0-2.3l-7.47,0a1.16,1.16,0,0,0-1.15,1.15,1.19,1.19,0,0,0,.33.8.92.92,0,0,0,.79.35Z"/><path class="cls-41" d="M359.14,538.08a1.18,1.18,0,0,0-.91-.39h0a5,5,0,0,0-3.92,2.25c-.08.08-.13.16-.19.22-.52.57-.63.63-.9.65s-.44-.08-1-.79a5.27,5.27,0,0,0-3.26-2.22V534h4.71a1.27,1.27,0,0,0,1-.49,1.66,1.66,0,0,0,.39-1.07v-22a1.52,1.52,0,0,0-1.37-1.58H312.2a1.27,1.27,0,0,0-1,.49,1.62,1.62,0,0,0-.39,1.07v21.95A1.52,1.52,0,0,0,312.2,534h4.54l0,4a5.52,5.52,0,0,0-2.52,2l-.19.19c-.52.58-.6.66-.87.66s-.44-.06-1-.8a5.16,5.16,0,0,0-4-2.27,1.48,1.48,0,0,0-1.37,1.59,1.52,1.52,0,0,0,1.37,1.59c.87,0,1.37.57,1.91,1.28a3.85,3.85,0,0,0,3.1,1.84,3.7,3.7,0,0,0,2.87-1.56s.05-.09.11-.11l.16-.17c.63-.79,1.07-1.26,1.89-1.28h0c.88,0,1.37.57,1.91,1.28a3.85,3.85,0,0,0,3.1,1.84,3.69,3.69,0,0,0,2.87-1.56s.06-.09.11-.11l.16-.17c.63-.79,1.07-1.26,1.89-1.28h0c.88,0,1.37.57,1.92,1.28a3.81,3.81,0,0,0,3.09,1.84,3.69,3.69,0,0,0,2.87-1.56s.06-.09.11-.11l.17-.17c.63-.79,1.06-1.26,1.88-1.28h0c.82,0,1.29.46,1.92,1.28a3.82,3.82,0,0,0,3.06,1.84h0a3.71,3.71,0,0,0,2.85-1.56.23.23,0,0,1,.11-.11l.16-.17c.63-.79,1.07-1.26,1.89-1.28h0c.82,0,1.28.46,1.91,1.28a3.83,3.83,0,0,0,3.09,1.84h0a3.66,3.66,0,0,0,2.85-1.56.23.23,0,0,1,.11-.11l.16-.17c.55-.68,1-1.28,1.92-1.28a1.46,1.46,0,0,0,1.37-1.56,4.41,4.41,0,0,0-.74-1.26Zm-15,2.08c-.52.57-.6.65-.87.65s-.44,0-1-.79a5.12,5.12,0,0,0-4-2.27h0a4.94,4.94,0,0,0-3.91,2.24c-.09.09-.14.17-.19.22-.52.58-.61.66-.88.66s-.44-.06-1-.79a5.07,5.07,0,0,0-4-2.28h0a4.92,4.92,0,0,0-3.91,2.25,1.24,1.24,0,0,0-.19.22c-.52.57-.6.65-.88.65s-.44,0-1-.79a5.8,5.8,0,0,0-2.6-2l0-3.94h26.62l0,4.24a6.38,6.38,0,0,0-1.86,1.72c-.11-.08-.16,0-.22.06Zm8.13-13.47v4.16H313.6v-4.16Zm0-7.36v4H313.6v-4Zm0-7.31v4.05H313.6V512Z"/><path class="cls-41" d="M308.7,505.37a1.42,1.42,0,0,0,1.31.91,1.13,1.13,0,0,0,.47-.09h0a1.5,1.5,0,0,0,.8-.73,1.37,1.37,0,0,0,0-1.07l-1.32-3.5a1.52,1.52,0,0,0-.74-.8,1.35,1.35,0,0,0-1.06,0,1.56,1.56,0,0,0-.8.74,1.37,1.37,0,0,0,0,1.07S308.7,505.37,308.7,505.37Z"/><path class="cls-41" d="M307.36,513.34a1.4,1.4,0,0,0,.79-1.81,1.46,1.46,0,0,0-.74-.79,1.29,1.29,0,0,0-1.07,0L302.87,512a1.5,1.5,0,0,0-.79.74,1.29,1.29,0,0,0,0,1.07,1.4,1.4,0,0,0,1.31.88,1.13,1.13,0,0,0,.47-.09S307.36,513.34,307.36,513.34Z"/><path class="cls-41" d="M302.79,507.62l3,1.34a1.38,1.38,0,0,0,.57.11,1.43,1.43,0,0,0,1.29-.8,1.35,1.35,0,0,0,0-1.06,1.4,1.4,0,0,0-.74-.77l-3-1.34a1.37,1.37,0,0,0-1.07,0,1.4,1.4,0,0,0-.77.74,1.26,1.26,0,0,0-.05,1A1.67,1.67,0,0,0,302.79,507.62Z"/><path class="cls-41" d="M365.24,534.14v-3l2.68-.49V512.46l-2.68-.49v-3h10.45v3l-2.73.49v17.76h7.14l.22-3.17h3.89v7h-19v.06Z"/><path class="cls-41" d="M397.23,534.14a7.42,7.42,0,0,1-.35-1,5.22,5.22,0,0,1-.22-1,6.49,6.49,0,0,1-2.19,1.67,6.91,6.91,0,0,1-3,.63,6.08,6.08,0,0,1-4.35-1.51,5.27,5.27,0,0,1-1.64-4.08,4.66,4.66,0,0,1,2.13-4.08,11.21,11.21,0,0,1,6.24-1.45h2.6v-1.8a2.8,2.8,0,0,0-.76-2.08,3.24,3.24,0,0,0-2.33-.74,5,5,0,0,0-1.53.19,3.67,3.67,0,0,0-1.1.47l-.33,2h-3.8V517.2a14.31,14.31,0,0,1,3.18-1.59,11.83,11.83,0,0,1,3.91-.63,9.15,9.15,0,0,1,5.69,1.72,5.87,5.87,0,0,1,2.19,4.88v8.59c0,.27.06.49.06.74l1.53.22v3l-6,0Zm-4.4-3.42a4.79,4.79,0,0,0,2.08-.5,4,4,0,0,0,1.45-1.23v-2.87h-2.58a3.6,3.6,0,0,0-2.46.76,2.35,2.35,0,0,0-.82,1.81,1.94,1.94,0,0,0,.63,1.51,2.6,2.6,0,0,0,1.7.52Z"/><path class="cls-41" d="M423.61,508.85a9.81,9.81,0,0,1,6.82,2.22,8.06,8.06,0,0,1,0,11.65,10,10,0,0,1-6.82,2.19h-4.27v5.59l2.74.49v3H411.63v-3l2.68-.49v-18l-2.68-.49v-3h12v-.08Zm-4.24,12.21h4.27a3.87,3.87,0,0,0,4.27-4.11,3.92,3.92,0,0,0-4.27-4.19h-4.27v8.3Z"/><path class="cls-41" d="M433.28,510.14v-3h7.77v23.51l2.46.49v3h-10v-3l2.46-.49V510.66l-2.73-.52Z"/><path class="cls-41" d="M456.18,534.14a6.18,6.18,0,0,1-.35-1,5.22,5.22,0,0,1-.22-1,6.58,6.58,0,0,1-2.19,1.67,6.91,6.91,0,0,1-3,.63,6.08,6.08,0,0,1-4.35-1.51,5.27,5.27,0,0,1-1.64-4.08,4.66,4.66,0,0,1,2.13-4.08,11.21,11.21,0,0,1,6.24-1.45h2.6v-1.8a2.8,2.8,0,0,0-.76-2.08,3.24,3.24,0,0,0-2.33-.74,5,5,0,0,0-1.53.19,3.67,3.67,0,0,0-1.1.47l-.33,2h-3.83V517.2a14.53,14.53,0,0,1,3.18-1.59,11.83,11.83,0,0,1,3.91-.63,9.13,9.13,0,0,1,5.69,1.72,5.87,5.87,0,0,1,2.19,4.88v8.59c0,.27.06.49.06.74l1.53.22v3l-5.94,0Zm-4.35-3.42a4.76,4.76,0,0,0,2.08-.5,4,4,0,0,0,1.45-1.23v-2.87h-2.6a3.6,3.6,0,0,0-2.46.76,2.35,2.35,0,0,0-.82,1.81,1.94,1.94,0,0,0,.63,1.51,2.51,2.51,0,0,0,1.72.52Z"/><path class="cls-41" d="M469,510.77v4.59h3.29v3.56H469v9.55a2,2,0,0,0,.47,1.53,1.65,1.65,0,0,0,1.23.47,5,5,0,0,0,.9-.05c.28-.06.55-.09.88-.14l.46,3.64a9.67,9.67,0,0,1-1.67.41,12.3,12.3,0,0,1-1.8.14,5.54,5.54,0,0,1-4.05-1.45c-1-1-1.4-2.5-1.4-4.55v-9.55h-2.76v-3.56H464v-4.59Z"/><path class="cls-41" d="M482.45,534.49a8.4,8.4,0,0,1-6.48-2.6,9.17,9.17,0,0,1-2.41-6.59v-.69a10.11,10.11,0,0,1,2.33-6.87,8.64,8.64,0,0,1,12.09-.41,8.82,8.82,0,0,1,2.08,6.19v2.76H478.87l-.06.08a4.73,4.73,0,0,0,1.24,3,3.79,3.79,0,0,0,3,1.18,8.53,8.53,0,0,0,2.76-.33,15.64,15.64,0,0,0,2.41-1l1.37,3.15a9.43,9.43,0,0,1-3,1.53,14.37,14.37,0,0,1-4.14.6Zm-.46-15.6a2.58,2.58,0,0,0-2.22,1.1,5.77,5.77,0,0,0-1,2.82l.05.08h6.24v-.47a4.23,4.23,0,0,0-.76-2.6A2.9,2.9,0,0,0,482,518.89Z"/><path class="cls-41" d="M491.76,531.1l2.46-.49V518.92h-2.76v-3.56h2.76v-2.08a6.42,6.42,0,0,1,1.81-4.87,7.16,7.16,0,0,1,5.14-1.72c.41,0,.88.05,1.32.08a9.92,9.92,0,0,1,1.45.27l-.47,3.78c-.27-.05-.54-.08-.82-.14a5,5,0,0,0-.9-.05,2.37,2.37,0,0,0-1.86.68,2.84,2.84,0,0,0-.63,1.95v2.08H503v3.55h-3.72v11.63l2.46.5v3h-10v-3Z"/><path class="cls-41" d="M503.8,524.53a9.92,9.92,0,0,1,2.35-6.87,9.2,9.2,0,0,1,13,0,10.21,10.21,0,0,1,2.35,6.87v.36a9.92,9.92,0,0,1-2.35,6.89,8.14,8.14,0,0,1-6.46,2.69,8.32,8.32,0,0,1-6.54-2.69,10.17,10.17,0,0,1-2.36-6.89l0-.36Zm5.06.41a8.4,8.4,0,0,0,.91,4.13,3.09,3.09,0,0,0,2.9,1.54,3.06,3.06,0,0,0,2.87-1.54,8.1,8.1,0,0,0,.91-4.07v-.36a8.44,8.44,0,0,0-.91-4.08,3.13,3.13,0,0,0-2.9-1.58,3.09,3.09,0,0,0-2.87,1.58,8.14,8.14,0,0,0-.91,4.08v.3Z"/><path class="cls-41" d="M523.2,531.1l2.41-.49V519l-2.68-.5v-3h7.42l.22,2.73a6.61,6.61,0,0,1,1.67-2.27,3.74,3.74,0,0,1,2.4-.82,4.63,4.63,0,0,1,.83,0c.27.06.54.09.73.14l-.49,4.6-2.08-.11a3,3,0,0,0-1.8.46,2.43,2.43,0,0,0-1.1,1.24v9.14l2.41.49v3h-9.91l0-3Z"/><path class="cls-41" d="M537.76,518.4v-3h7.42l.22,2.49a6.25,6.25,0,0,1,5.42-2.82,5.69,5.69,0,0,1,3.09.83,4.69,4.69,0,0,1,1.94,2.4,6.59,6.59,0,0,1,2.28-2.35,6.18,6.18,0,0,1,3.28-.88,5.26,5.26,0,0,1,4.35,1.92c1.1,1.29,1.59,3.23,1.59,5.83v7.83l2.46.49v3h-9.69v-3l2.19-.49v-7.86a4.75,4.75,0,0,0-.68-3,2.54,2.54,0,0,0-2-.82,4,4,0,0,0-1.86.46,3.76,3.76,0,0,0-1.29,1.31v9.77l2.05.5v3h-9.14V531l2-.49v-7.78a4.87,4.87,0,0,0-.68-3,2.45,2.45,0,0,0-2.08-.88,3.69,3.69,0,0,0-1.78.41,3.9,3.9,0,0,0-1.29,1.1v10.12l2.19.5v3H538v-3l2.46-.5V519l-2.74-.55Z"/><path class="cls-41" d="M578.43,534.49a8.4,8.4,0,0,1-6.48-2.6,9.12,9.12,0,0,1-2.41-6.59v-.69a10.1,10.1,0,0,1,2.32-6.87,8.65,8.65,0,0,1,12.1-.41,8.77,8.77,0,0,1,2.08,6.19v2.76H574.85l-.06.08a4.72,4.72,0,0,0,1.23,3,3.8,3.8,0,0,0,3,1.18,8.59,8.59,0,0,0,2.77-.33,15.64,15.64,0,0,0,2.41-1l1.37,3.15a9.43,9.43,0,0,1-3,1.53,14.22,14.22,0,0,1-4.14.6Zm-.46-15.6a2.58,2.58,0,0,0-2.22,1.1,5.58,5.58,0,0,0-1,2.82l0,.08H581v-.47a4.23,4.23,0,0,0-.76-2.6A2.9,2.9,0,0,0,578,518.89Z"/></g></g></svg>