
<svg width="331px" height="149px" viewBox="0 0 331 149" version="1.1" xmlns="http://www.w3.org/2000/svg" xmlns:xlink="http://www.w3.org/1999/xlink">
    <defs>
        <filter x="-6.9%" y="-16.5%" width="114.1%" height="133.9%" filterUnits="objectBoundingBox" id="filter-1">
            <feOffset dx="0" dy="2" in="SourceAlpha" result="shadowOffsetOuter1"></feOffset>
            <feGaussianBlur stdDeviation="4.5" in="shadowOffsetOuter1" result="shadowBlurOuter1"></feGaussianBlur>
            <feColorMatrix values="0 0 0 0 0.639215686   0 0 0 0 0.639215686   0 0 0 0 0.639215686  0 0 0 0.5 0" type="matrix" in="shadowBlurOuter1" result="shadowMatrixOuter1"></feColorMatrix>
            <feMerge>
                <feMergeNode in="shadowMatrixOuter1"></feMergeNode>
                <feMergeNode in="SourceGraphic"></feMergeNode>
            </feMerge>
        </filter>
        <polygon id="path-2" points="0.0620932482 0.144478931 313.062093 0.144478931 313.062093 131.144479 0.0620932482 131.144479"></polygon>
    </defs>
    <g id="Page-1" stroke="none" stroke-width="1" fill="none" fill-rule="evenodd">
        <g id="Desktop-HD" transform="translate(-241.000000, -107.000000)">
            <g id="Group-3" filter="url(#filter-1)" transform="translate(249.937907, 113.855521)">
                <mask id="mask-3" fill="white">
                    <use xlink:href="#path-2"></use>
                </mask>
                <g id="Clip-2"></g>
                <path d="M268.446897,0.144478931 L6.58996913,0.144478931 C1.49125026,0.144478931 -1.63272273,5.49509848 1.03880849,9.65084653 L34.9331968,62.3761171 C36.2224059,64.3807207 36.2224059,66.9088634 34.9331968,68.913467 L1.03880849,121.638111 C-1.63272273,125.794486 1.49125026,131.144479 6.58996913,131.144479 L268.446897,131.144479 C270.710356,131.144479 272.81196,130.020999 273.998058,128.175461 L312.095655,68.913467 C313.384239,66.9088634 313.384239,64.3807207 312.095655,62.3761171 L273.998058,3.11349664 C272.81196,1.26858498 270.710356,0.144478931 268.446897,0.144478931" id="Fill-1" fill="#D22261" mask="url(#mask-3)"></path>
            </g>
            <text id="Année-1-Découverte-e" font-family="RobotoSlab-Regular, Roboto Slab" font-size="17" font-weight="normal" fill="#FFFFFF">
                <tspan x="305" y="147">Année 1</tspan>
                <tspan x="305" y="170" font-family="RobotoSlab-Bold, Roboto Slab" font-weight="bold">Découverte et initiation </tspan>
                <tspan x="305" y="193" font-family="RobotoSlab-Bold, Roboto Slab" font-weight="bold">aux métiers et technologies </tspan>
                <tspan x="305" y="216" font-family="RobotoSlab-Bold, Roboto Slab" font-weight="bold">du numérique</tspan>
            </text>
        </g>
    </g>
</svg>
