<?xml version="1.0" encoding="UTF-8" standalone="no"?><!DOCTYPE svg PUBLIC "-//W3C//DTD SVG 1.1//EN" "http://www.w3.org/Graphics/SVG/1.1/DTD/svg11.dtd"><svg width="100%" height="100%" viewBox="0 0 1190 558" version="1.1" xmlns="http://www.w3.org/2000/svg" xmlns:xlink="http://www.w3.org/1999/xlink" xml:space="preserve" xmlns:serif="http://www.serif.com/" style="fill-rule:evenodd;clip-rule:evenodd;stroke-linejoin:round;stroke-miterlimit:2;"><rect id="Artboard1" x="0" y="0" width="1189.64" height="557.234" style="fill:none;"/><g id="Layer-1" serif:id="Layer 1"><path d="M93.461,196.73c1.429,-0.599 0.979,-2.035 1.246,-3.068c4.374,-16.878 15.484,-26.407 32.476,-28.837c11.112,-1.59 22.378,-1.819 33.403,1c12.422,3.177 19.912,11.949 25.335,22.94c0.951,1.928 0.319,2.99 -1.427,3.875c-6.043,3.062 -12.079,6.138 -18.075,9.291c-2.297,1.209 -3.515,0.384 -4.417,-1.77c-3.82,-9.121 -10.461,-13.539 -20.554,-12.302c-1.89,0.232 -3.834,0.006 -5.752,0.038c-8.823,0.148 -15.92,6.805 -15.976,15.56c-0.145,22.391 -0.134,44.785 -0.005,67.177c0.049,8.565 6.933,15.211 15.572,15.512c2.654,0.092 5.333,-0.189 7.966,0.058c9.151,0.861 14.857,-3.734 18.368,-11.561c1.327,-2.958 2.624,-3.736 5.642,-2.057c5.402,3.004 10.974,5.71 16.541,8.405c2.528,1.224 3.039,2.667 1.744,5.219c-7.846,15.46 -20.05,23.965 -37.74,23.67c-7.36,-0.122 -14.757,0.716 -22.075,-0.756c-16.067,-3.233 -26.733,-12.274 -30.93,-28.408c-0.307,-1.18 0.113,-2.747 -1.342,-3.526l0,-80.46Z" style="fill:#fff;fill-rule:nonzero;"/><path d="M994.599,388.587c4.119,-0 8.237,-0.011 12.356,0.004c2.625,0.01 3.863,-1 3.102,-3.798c-1.626,-5.975 -8.342,-10.974 -14.981,-11.074c-6.738,-0.102 -13.943,4.883 -15.643,10.829c-0.71,2.482 -0.103,4.051 2.81,4.043c4.119,-0.012 8.237,-0.003 12.356,-0.004m-6.445,68.975c-3.471,-0.996 -7.026,-1.768 -10.398,-3.028c-15.383,-5.745 -23.945,-17.098 -24.779,-33.236c-0.666,-12.882 -1.646,-25.969 0.649,-38.76c3.554,-19.801 23.774,-34.491 43.828,-32.617c22.663,2.119 39.244,19.295 39.278,40.692c0.009,5.152 -0.182,10.314 0.067,15.454c0.164,3.401 -1.197,4.286 -4.372,4.264c-16.076,-0.108 -32.154,-0.053 -48.23,-0.047c-5.452,0.002 -5.97,0.579 -5.604,6.125c0.808,12.26 10.511,19.941 20.716,16.313c4.871,-1.731 8.133,-5.362 10.051,-9.977c1.638,-3.939 3.812,-4.073 7.182,-2.264c4.786,2.569 9.667,4.987 14.632,7.19c3.304,1.465 4.011,3.159 2.23,6.447c-6.768,12.496 -16.24,21.154 -31.004,22.724c-0.341,0.037 -0.64,0.471 -0.958,0.72l-13.288,-0Z" style="fill:#fff;fill-rule:nonzero;"/><path d="M745.583,388.585c4.122,0 8.244,0.036 12.366,-0.012c2.902,-0.034 3.957,-1.199 2.845,-4.212c-2.278,-6.173 -8.203,-10.559 -14.802,-10.643c-6.617,-0.084 -13.416,4.518 -15.49,10.468c-1.037,2.973 -0.179,4.492 3.157,4.423c3.973,-0.081 7.949,-0.019 11.924,-0.024m-7.235,68.976c-2.435,-1.8 -5.487,-1.614 -8.214,-2.498c-15.498,-5.02 -25.68,-17.771 -26.278,-34.021c-0.407,-11.029 -0.499,-22.099 -0.07,-33.125c0.858,-22.042 22.673,-40.269 44.914,-37.937c23.724,2.487 39.065,19.418 39.112,43.168c0.009,4.125 -0.132,8.254 0.042,12.371c0.15,3.566 -1.141,4.878 -4.866,4.837c-15.787,-0.176 -31.577,-0.076 -47.366,-0.074c-6.079,0.001 -6.079,0.004 -5.979,6.502c0.186,12.048 11.573,20.121 21.773,15.434c4.388,-2.017 7.296,-5.525 9.096,-9.817c1.475,-3.52 3.359,-3.767 6.472,-2.106c5.057,2.7 10.191,5.289 15.446,7.575c3.387,1.474 3.463,3.305 1.916,6.186c-6.716,12.508 -16.115,21.28 -30.97,22.706c-0.307,0.03 -0.57,0.523 -0.854,0.799l-14.174,0Z" style="fill:#fff;fill-rule:nonzero;"/><path d="M632.934,457.562c-0.818,-1.659 -2.581,-1.192 -3.862,-1.489c-12.667,-2.934 -20.791,-11.03 -26.178,-22.408c-1.173,-2.477 -0.8,-4.067 1.81,-5.269c5.211,-2.401 10.37,-4.922 15.491,-7.511c2.595,-1.312 4.195,-1.075 5.484,1.87c5.422,12.393 15.347,12.984 28.08,10.263c4.135,-0.883 6.855,-4.12 6.632,-8.78c-0.21,-4.401 -3.59,-5.884 -7.151,-6.625c-7.493,-1.561 -15.048,-2.824 -22.572,-4.241c-1.445,-0.273 -2.877,-0.641 -4.29,-1.053c-14.875,-4.334 -21.989,-12.049 -23.081,-24.999c-1.198,-14.214 5.904,-27.484 18.831,-33.115c15.166,-6.606 30.785,-6.304 45.984,0.022c8.866,3.69 14.151,11.227 18.063,19.765c1.043,2.277 0.341,3.552 -1.748,4.544c-5.452,2.589 -10.887,5.215 -16.303,7.876c-2.365,1.162 -3.83,0.518 -4.854,-1.877c-5.507,-12.882 -17.205,-12.883 -29.433,-10.202c-3.167,0.695 -4.705,3.299 -4.87,6.618c-0.17,3.426 1.547,5.512 4.533,6.826c4.794,2.111 10.02,2.306 15.038,3.425c5.171,1.152 10.414,2.089 15.47,3.628c22.759,6.93 29.872,29.827 15.213,48.714c-6.005,7.737 -14.111,11.803 -23.701,13.158c-0.801,0.113 -1.827,-0.328 -2.212,0.86l-1.771,-0c-5.02,-1.275 -10.04,-1.329 -15.06,-0l-3.543,-0Z" style="fill:#fff;fill-rule:nonzero;"/><path d="M636.478,457.562c5.02,-1.329 10.039,-1.275 15.059,-0l-15.059,-0Z" style="fill:#fff;fill-rule:nonzero;"/><path d="M383.204,396.27c-5.407,14.346 -11.833,27.882 -17.316,41.793c-0.827,2.098 -2.012,3.145 -4.273,2.854c-0.145,-0.019 -0.295,-0.005 -0.443,-0.001c-14.37,0.341 -14.443,0.369 -19.539,-12.986c-4.083,-10.699 -8.862,-21.137 -12.165,-32.131c-0.226,-0.751 -0.2,-1.877 -1.786,-1.75c2.204,18.634 1.271,37.348 1.659,56.031c0.087,4.173 -1.209,5.326 -5.218,5.064c-5.144,-0.337 -10.335,-0.257 -15.49,-0.017c-3.177,0.147 -4.005,-1.021 -3.98,-4.041c0.124,-14.879 0.056,-29.76 0.056,-44.64c-0,-19.742 0.093,-39.485 -0.083,-59.225c-0.033,-3.655 0.924,-4.903 4.657,-4.684c5.296,0.31 10.649,0.399 15.928,-0.03c3.74,-0.305 5.149,1.34 6.376,4.418c8.101,20.321 16.337,40.589 24.637,61.145c3.696,-9.423 7.347,-18.757 11.018,-28.082c4.413,-11.21 8.914,-22.385 13.214,-33.638c1.023,-2.678 2.247,-3.977 5.383,-3.82c5.889,0.296 11.808,0.208 17.707,0.031c2.768,-0.083 3.549,0.941 3.545,3.581c-0.061,35.064 -0.068,70.128 0.01,105.192c0.007,2.921 -0.979,3.867 -3.844,3.777c-5.456,-0.171 -10.93,-0.24 -16.379,0.023c-3.298,0.159 -4.349,-0.85 -4.279,-4.181c0.325,-15.457 0.429,-30.92 0.601,-46.381c0.03,-2.767 0.004,-5.535 0.004,-8.302" style="fill:#fff;fill-rule:nonzero;"/><path d="M590.557,284.118c10.193,-0.002 17.389,-4.72 18.981,-12.376c0.464,-2.236 0.332,-3.634 -2.602,-3.573c-6.923,0.144 -13.852,0.041 -20.779,0.053c-3.764,0.006 -5.656,2.222 -6.177,5.645c-1.158,7.599 1.638,10.253 10.577,10.251m44.9,-12.424c-0,10.461 -0.15,20.926 0.079,31.383c0.083,3.773 -1.263,4.905 -4.857,4.748c-5.157,-0.226 -10.331,-0.025 -15.497,-0.08c-1.377,-0.015 -3.235,0.446 -3.471,-1.719c-0.391,-3.591 -2.005,-2.936 -4.486,-1.784c-11.772,5.466 -23.896,5.095 -35.657,0.488c-12.959,-5.078 -19.621,-18.837 -17.153,-33.445c2.414,-14.287 13.429,-24.037 28.584,-24.844c7.508,-0.4 15.054,-0.288 22.578,-0.142c3.458,0.068 4.343,-1.353 4.082,-4.519c-0.577,-6.99 -3.745,-11.976 -10.532,-14.337c-6.786,-2.361 -12.477,-0.547 -17.099,4.767c-1.538,1.768 -3.027,3.644 -4.159,5.682c-1.516,2.73 -3.24,2.841 -5.778,1.438c-5.155,-2.849 -10.366,-5.611 -15.661,-8.191c-2.723,-1.326 -2.726,-2.932 -1.532,-5.305c7.396,-14.707 18.916,-22.964 35.758,-23.068c5.615,-0.034 11.179,0.068 16.656,1.659c17.414,5.058 27.95,18.688 28.126,36.768c0.1,10.166 0.018,20.334 0.019,30.501" style="fill:#fff;fill-rule:nonzero;"/><path d="M475.75,415.274l-0,0.032c-3.676,0 -7.369,-0.225 -11.023,0.057c-4.493,0.348 -6.4,3.341 -6.148,8.929c0.214,4.726 2.161,6.77 6.683,6.871c2.939,0.065 5.887,0.117 8.821,-0.029c6.53,-0.324 13.318,-6.351 14.242,-12.461c0.344,-2.276 -0.06,-3.63 -2.873,-3.447c-3.222,0.209 -6.467,0.048 -9.702,0.048m38.341,3.726c-0,10.609 -0.112,21.22 0.066,31.826c0.056,3.303 -1.002,4.432 -4.302,4.294c-5.306,-0.221 -10.628,-0.018 -15.941,-0.087c-1.341,-0.018 -3.315,0.593 -3.523,-1.589c-0.405,-4.249 -2.492,-2.722 -4.824,-1.74c-12.634,5.32 -25.445,5.273 -37.62,-0.765c-12.331,-6.117 -17.528,-19.67 -14.374,-34.377c2.67,-12.449 13.39,-21.781 26.687,-22.59c7.944,-0.483 15.938,-0.301 23.905,-0.166c3.443,0.058 4.456,-1.477 4.231,-4.549c-0.48,-6.55 -3.274,-11.523 -9.566,-14.135c-6.202,-2.576 -11.8,-1.685 -16.739,2.95c-2.277,2.136 -4.221,4.546 -5.666,7.296c-1.324,2.519 -2.888,2.843 -5.359,1.464c-5.139,-2.867 -10.336,-5.652 -15.647,-8.18c-3.152,-1.5 -3.084,-3.313 -1.646,-5.956c9.135,-16.786 20.47,-23.482 40.907,-22.726c12.859,0.476 24.229,4.916 32.191,15.763c4.963,6.763 7.094,14.49 7.192,22.766c0.119,10.165 0.028,20.334 0.028,30.501" style="fill:#fff;fill-rule:nonzero;"/><path d="M242.015,241.074c3.686,0 7.373,0.017 11.059,-0.004c4.945,-0.028 5.744,-1.321 3.375,-5.791c-3.186,-6.01 -8.203,-9.145 -15.088,-8.772c-6.88,0.372 -11.397,4.204 -14.236,10.264c-1.453,3.099 -0.351,4.379 2.946,4.319c3.98,-0.073 7.963,-0.017 11.944,-0.016m12.831,21.834c-8.12,0 -16.242,0.113 -24.358,-0.054c-3.274,-0.068 -4.33,1.078 -4.354,4.344c-0.088,11.605 6.603,19.383 16.7,18.94c7.108,-0.311 11.321,-4.89 14,-10.683c1.831,-3.957 3.64,-4.13 7.07,-2.263c5.17,2.814 10.539,5.266 15.843,7.833c2.041,0.987 2.856,2.115 1.692,4.497c-6.752,13.811 -17.066,22.889 -32.873,24.187c-16.216,1.332 -30.953,-1.811 -41.323,-15.835c-3.744,-5.062 -6.099,-10.826 -6.581,-17.103c-0.994,-12.933 -1.358,-25.957 -0.023,-38.827c2.253,-21.714 22.232,-36.57 46.016,-35.08c20.299,1.271 37.322,19.494 37.403,40.054c0.021,5.158 -0.176,10.324 0.066,15.47c0.162,3.432 -0.885,4.696 -4.477,4.594c-8.261,-0.235 -16.533,-0.074 -24.801,-0.074" style="fill:#fff;fill-rule:nonzero;"/><path d="M746.68,241.071c4.132,0 8.266,-0.071 12.397,0.022c3.277,0.074 3.763,-1.495 2.85,-4.202c-2,-5.929 -8.531,-10.556 -14.994,-10.565c-6.537,-0.01 -13.403,4.85 -15.345,10.797c-0.832,2.549 -0.299,3.998 2.695,3.959c4.131,-0.054 8.265,-0.013 12.397,-0.011m13.18,21.837c-7.967,0 -15.942,0.226 -23.896,-0.091c-4.233,-0.169 -5.218,1.413 -5.149,5.333c0.193,11.105 6.761,18.437 16.698,17.986c6.86,-0.311 11.13,-4.565 13.732,-10.306c1.9,-4.194 3.874,-4.649 7.713,-2.454c4.972,2.841 10.254,5.148 15.432,7.622c2.086,0.997 2.869,2.282 1.744,4.527c-7.014,13.982 -17.537,23.203 -33.756,24.273c-16.988,1.119 -32.021,-2.712 -41.917,-18.059c-2.902,-4.501 -4.705,-9.525 -5.122,-14.883c-1.052,-13.507 -1.831,-27.13 0.209,-40.512c3.268,-21.445 23.237,-35.381 46.468,-33.432c20.206,1.695 36.763,19.973 36.826,40.665c0.016,5.006 -0.157,10.02 0.06,15.017c0.14,3.24 -0.915,4.449 -4.259,4.374c-8.258,-0.184 -16.522,-0.06 -24.783,-0.06" style="fill:#fff;fill-rule:nonzero;"/><path d="M304.286,256.088c-0,-15.465 0.121,-30.932 -0.083,-46.394c-0.053,-3.973 1.287,-5.154 5.107,-4.939c5.001,0.281 10.03,0.057 15.047,0.076c1.595,0.006 3.485,-0.307 3.802,1.982c0.433,3.13 2.071,2.403 4.1,1.594c28.074,-11.193 55.009,5.743 55.921,35.648c0.605,19.865 0.088,39.764 0.164,59.647c0.012,3.069 -1.202,4.177 -4.22,4.106c-5.9,-0.139 -11.81,-0.196 -17.705,0.018c-3.557,0.129 -4.503,-1.26 -4.479,-4.664c0.133,-19.588 0.104,-39.178 0.04,-58.767c-0.021,-6.46 -3,-11.294 -8.852,-14.142c-6.041,-2.939 -11.812,-2.012 -17.023,1.96c-4.434,3.379 -5.993,8.185 -5.988,13.624c0.02,19 -0.096,38.001 0.094,56.999c0.039,3.868 -1.011,5.245 -4.956,5.008c-5.146,-0.309 -10.338,-0.307 -15.485,-0.003c-4.14,0.246 -5.661,-0.937 -5.586,-5.359c0.263,-15.461 0.102,-30.929 0.102,-46.394" style="fill:#fff;fill-rule:nonzero;"/><path d="M859.262,162.236c-0.441,4.832 -0.902,9.661 -1.317,14.495c-0.782,9.092 4.107,15.419 10.598,20.71c11.681,9.521 25.545,14.437 39.963,17.859c25.886,6.145 51.886,6.963 77.948,0.955c0.692,-0.16 1.429,-0.121 2.146,-0.175l0.386,1.074c-30.143,12.37 -60.285,24.74 -90.427,37.11c-2.094,1.175 -3.532,-0.109 -5.073,-1.273c-7.697,-5.817 -15.423,-11.597 -23.139,-17.39c-2.772,-2.931 -6.538,-4.323 -9.926,-6.266c-21.328,-12.228 -41.606,-26.102 -62.222,-39.446c-1.07,-0.693 -2.656,-1.194 -2.509,-2.762c0.171,-1.833 2.069,-1.935 3.352,-2.421c18.278,-6.913 36.584,-13.755 54.873,-20.638c1.361,-0.513 2.651,-1.213 3.974,-1.827c0.458,-0.002 0.915,-0.003 1.373,-0.005" style="fill:#fff;fill-rule:nonzero;"/><path d="M446.169,251.234c0,5.447 -0.008,10.895 0.001,16.342c0.019,10.513 4.635,16.514 14.857,18.038c3.974,0.593 4.739,2.121 4.555,5.632c-0.262,4.992 -0.159,10.01 -0.03,15.012c0.067,2.573 -0.68,3.84 -3.491,3.673c-22.403,-1.333 -41.688,-14.028 -41.599,-39.925c0.042,-12.219 -0.095,-24.441 0.071,-36.658c0.048,-3.557 -0.913,-5.217 -4.727,-4.834c-2.629,0.264 -5.309,-0.035 -7.959,0.075c-2.327,0.098 -3.41,-0.558 -3.53,-3.183c-0.312,-6.822 0.625,-12.662 6.344,-17.692c6.828,-6.005 12.669,-13.125 18.968,-19.733c1.949,-2.045 13.21,-3.428 15.519,-2.031c1.298,0.785 0.992,2.024 1.003,3.143c0.043,4.122 0.06,8.245 0.008,12.366c-0.03,2.412 1,3.453 3.465,3.391c4.127,-0.105 8.262,0.065 12.388,-0.057c2.7,-0.08 3.616,1.018 3.547,3.671c-0.146,5.591 -0.129,11.19 -0.007,16.782c0.055,2.498 -0.903,3.421 -3.365,3.349c-3.98,-0.117 -7.971,0.108 -11.945,-0.074c-3.131,-0.144 -4.174,1.165 -4.112,4.163c0.13,6.181 0.039,12.366 0.039,18.55" style="fill:#fff;fill-rule:nonzero;"/><path d="M684.458,237.403c0,21.94 -0.064,43.88 0.068,65.819c0.02,3.385 -0.847,4.772 -4.427,4.61c-5.447,-0.245 -10.924,-0.263 -16.369,0.004c-3.829,0.188 -5.079,-1.022 -5.056,-4.974c0.16,-27.682 0.085,-55.364 0.085,-83.046c0,-16.345 0.091,-32.69 -0.073,-49.032c-0.035,-3.469 1.028,-4.785 4.507,-4.677c5.6,0.174 11.214,0.176 16.814,-0c3.422,-0.108 4.549,1.085 4.526,4.594c-0.148,22.233 -0.075,44.468 -0.075,66.702" style="fill:#fff;fill-rule:nonzero;"/><path d="M882.893,384.505c0,22.097 -0.059,44.194 0.065,66.291c0.018,3.175 -0.669,4.501 -4.131,4.338c-5.743,-0.269 -11.522,-0.314 -17.26,0.008c-4.169,0.234 -4.423,-1.895 -4.417,-5.116c0.067,-36.239 0.042,-72.478 0.042,-108.717c0,-7.955 0.084,-15.911 -0.044,-23.864c-0.045,-2.831 0.888,-3.983 3.819,-3.907c5.9,0.151 11.811,0.186 17.708,-0.012c3.23,-0.108 4.32,0.85 4.297,4.247c-0.152,22.243 -0.079,44.488 -0.079,66.732" style="fill:#fff;fill-rule:nonzero;"/><path d="M906.653,384.619c0,-22.104 0.073,-44.208 -0.073,-66.31c-0.024,-3.619 0.941,-4.992 4.712,-4.8c5.596,0.286 11.221,0.208 16.825,0.022c3.175,-0.106 4.446,0.84 4.439,4.223c-0.086,44.354 -0.085,88.709 0,133.063c0.006,3.245 -0.949,4.439 -4.28,4.308c-5.749,-0.227 -11.522,-0.261 -17.267,0.008c-3.661,0.172 -4.443,-1.267 -4.423,-4.646c0.131,-21.955 0.067,-43.912 0.067,-65.868" style="fill:#fff;fill-rule:nonzero;"/><path d="M488.398,256.244c-0,-15.468 0.109,-30.938 -0.079,-46.404c-0.046,-3.75 0.816,-5.362 4.88,-5.095c4.997,0.329 10.036,0.204 15.048,0.03c2.843,-0.098 3.875,0.822 3.931,3.755c0.076,4.044 0.892,4.271 4.374,1.868c6.161,-4.253 12.837,-6.439 20.431,-5.252c2.629,0.41 3.805,1.547 3.739,4.356c-0.157,6.626 -0.064,13.257 -0.046,19.887c0.009,3.202 -1.228,4.135 -4.446,3.111c-12.695,-4.041 -22.017,2.748 -22.103,16.164c-0.116,18.119 -0.115,36.24 0.043,54.359c0.032,3.618 -0.965,4.999 -4.721,4.816c-5.596,-0.273 -11.219,-0.214 -16.821,-0.017c-3.257,0.115 -4.332,-0.964 -4.299,-4.29c0.155,-15.762 0.069,-31.525 0.069,-47.288" style="fill:#fff;fill-rule:nonzero;"/><path d="M539.769,403.684c-0,-15.764 0.085,-31.529 -0.069,-47.291c-0.032,-3.315 0.989,-4.411 4.286,-4.262c5.155,0.232 10.333,0.169 15.494,0.017c2.66,-0.079 4.311,0.408 3.975,3.552c-0.137,1.278 -0.201,2.821 1.186,3.526c1.579,0.803 2.295,-0.823 3.316,-1.54c6.022,-4.232 12.64,-6.166 20.031,-5.305c2.739,0.32 4.215,1.334 4.117,4.467c-0.202,6.476 -0.015,12.964 -0.078,19.446c-0.039,4.018 -1.054,4.672 -4.8,3.355c-11.351,-3.99 -21.586,3.076 -21.604,14.97c-0.029,18.416 -0.111,36.833 0.074,55.247c0.04,4.009 -1.021,5.555 -5.221,5.279c-5.291,-0.347 -10.639,-0.348 -15.93,0.002c-4.08,0.27 -4.907,-1.297 -4.859,-5.056c0.196,-15.467 0.082,-30.938 0.082,-46.407" style="fill:#fff;fill-rule:nonzero;"/><path d="M833.599,404.092c0,15.457 -0.111,30.915 0.08,46.369c0.046,3.716 -1.102,4.865 -4.763,4.675c-5.442,-0.284 -10.92,-0.275 -16.364,-0.003c-3.656,0.182 -4.788,-0.986 -4.767,-4.7c0.147,-26.496 0.078,-52.994 0.078,-79.491c0,-5.005 0.131,-10.015 -0.049,-15.014c-0.105,-2.93 1.023,-3.856 3.863,-3.781c5.895,0.154 11.803,0.21 17.694,-0.018c3.305,-0.128 4.322,0.976 4.293,4.268c-0.144,15.898 -0.065,31.797 -0.065,47.695" style="fill:#fff;fill-rule:nonzero;"/><path d="M1041.12,147.236c1.188,-3.923 2.474,-7.82 3.53,-11.779c0.674,-2.526 1.741,-2.362 3.728,-1.278c18.828,10.279 37.71,20.46 56.559,30.702c1.1,0.597 2.788,0.968 2.65,2.574c-0.134,1.574 -1.856,1.698 -3.018,2.177c-19.139,7.895 -38.296,15.746 -57.436,23.637c-1.738,0.717 -3.39,1.641 -5.082,2.469c-0.624,0.176 -1.248,0.352 -1.872,0.528c-6.721,2.66 -13.443,5.319 -20.164,7.979c-0.153,-0.301 -0.306,-0.602 -0.458,-0.902c1.749,-1.171 3.51,-2.325 5.245,-3.517c3.75,-2.58 7.267,-5.423 10.416,-8.738c5.258,-5.535 8.008,-11.786 6.366,-19.569c-0.388,-1.838 -0.226,-3.792 -0.317,-5.692c-0.033,-2.113 0.693,-4.346 -0.99,-6.197l0.027,0.078c-0.033,-2.17 0.21,-4.391 -0.175,-6.496c-0.405,-2.21 -0.889,-4.23 0.991,-5.976" style="fill:#fff;fill-rule:nonzero;"/><path d="M1040.18,196.266c0.624,-0.176 1.248,-0.352 1.872,-0.529c0.047,23.412 0.084,46.824 0.154,70.235c0.01,3.157 -1.094,5.051 -4.596,5.045c-24.343,-0.04 -48.687,-0.037 -73.031,-0.063c-0.225,-0 -0.451,-0.213 -1.328,-0.655c41.11,-9.112 67.572,-32.831 76.929,-74.033" style="fill:#fff;fill-rule:nonzero;"/><path d="M859.262,162.236c-0.458,0.002 -0.915,0.003 -1.373,0.005c-0.032,-23.567 -0.048,-47.134 -0.12,-70.701c-0.009,-2.743 0.627,-4.6 3.861,-4.596c24.625,0.025 49.25,0.013 73.927,0.013c-0.189,1.758 -1.457,1.53 -2.359,1.705c-37.61,7.291 -65.736,34.963 -73.508,72.338c-0.088,0.423 -0.283,0.824 -0.428,1.236" style="fill:#fff;fill-rule:nonzero;"/><path d="M1041.12,147.236c-1.88,1.746 -1.396,3.766 -0.991,5.976c0.385,2.105 0.142,4.326 0.175,6.496c-0.952,-3.054 -1.785,-6.149 -2.872,-9.153c-12.075,-33.373 -35.314,-54.138 -70.152,-61.768c-0.861,-0.189 -1.718,-0.405 -2.562,-0.658c-0.237,-0.071 -0.419,-0.324 -1.117,-0.894c1.562,-0.122 2.615,-0.276 3.668,-0.277c23.017,-0.013 46.033,-0.017 69.05,-0.005c5.215,0.003 5.818,0.63 5.875,5.841c0.172,15.901 -0.419,31.774 -1.557,47.634c-0.161,2.237 -1.041,4.643 0.483,6.808" style="fill:#fff;fill-rule:nonzero;"/><path d="M870.347,235.601c7.716,5.793 15.442,11.573 23.14,17.39c1.54,1.164 2.978,2.449 5.073,1.273c1.904,3.055 5.29,4.065 8.175,5.655c8.31,4.579 17.219,7.582 26.558,9.301c0.833,0.153 1.792,0.008 2.366,0.982c-0.428,1.45 -1.681,0.764 -2.498,0.765c-23.308,0.047 -46.616,-0.014 -69.923,0.088c-3.938,0.018 -5.589,-1.301 -5.509,-5.392c0.191,-9.714 0.179,-19.436 -0.002,-29.151c-0.063,-3.43 1.005,-4.028 4.087,-2.979c2.759,0.94 5.682,1.398 8.533,2.068" style="fill:#fff;fill-rule:nonzero;"/><path d="M835.878,326.437c0.048,8.205 -6.982,15.298 -15.156,15.292c-8.029,-0.007 -14.942,-6.848 -15.054,-14.898c-0.118,-8.471 6.477,-15.255 14.883,-15.31c8.542,-0.056 15.278,6.499 15.327,14.916" style="fill:#fff;fill-rule:nonzero;"/><path d="M1040.28,159.63c1.683,1.85 0.957,4.084 0.99,6.197c-1.005,-1.958 -1.028,-4.073 -0.99,-6.197" style="fill:#fff;fill-rule:nonzero;"/></g></svg>