
<svg width="38px" height="38px" viewBox="0 0 38 38" version="1.1" xmlns="http://www.w3.org/2000/svg" xmlns:xlink="http://www.w3.org/1999/xlink">
    <g id="Page-1" stroke="none" stroke-width="1" fill="none" fill-rule="evenodd">
        <g id="Desktop-HD" transform="translate(-153.000000, -715.000000)" fill="#E55615" fill-rule="nonzero" stroke="#E55615" stroke-width="0.5">
            <g id="noun-time-3806516" transform="translate(153.918173, 716.031453)">
                <path d="M18.0818269,-0.031452721 C13.3078444,-0.031452721 8.72975559,1.86497455 5.35403807,5.24075842 C1.9782542,8.61627686 0.0818269293,13.1946311 0.0818269293,17.9685473 C0.0818269293,22.7424635 1.9782542,27.3206186 5.35403807,30.6963361 C8.72955651,34.07212 13.3079107,35.9685473 18.0818269,35.9685473 C22.8557431,35.9685473 27.4338983,34.07212 30.8096158,30.6963361 C34.1853997,27.3208177 36.0818269,22.7424635 36.0818269,17.9685473 C36.0763834,13.1963564 34.1781001,8.62112111 30.8036434,5.24673079 C27.4291204,1.87220775 22.8537524,-0.0260112263 18.0818269,-0.031452721 L18.0818269,-0.031452721 Z M18.0818269,34.8073854 C13.6160188,34.8073854 9.33296518,33.0333254 6.17490746,29.8755331 C3.01711517,26.7174754 1.24305517,22.4346209 1.24305517,17.9686136 C1.24305517,13.5026064 3.01711517,9.21975189 6.17490746,6.06169417 C9.33296518,2.90390188 13.6158197,1.12984188 18.0818269,1.12984188 C22.5478342,1.12984188 26.8306887,2.90390188 29.9887464,6.06169417 C33.1465387,9.21975189 34.9205987,13.5026064 34.9205987,17.9686136 C34.9156735,22.4328292 33.13977,26.7128302 29.9830395,29.8695607 C26.8263089,33.0262913 22.5461088,34.8022093 18.0820924,34.8073854 L18.0818269,34.8073854 Z M18.0818269,2.29113649 C13.9239941,2.29113649 9.93617478,3.94289557 6.99644044,6.88289535 C4.0563743,9.82296149 2.40468158,13.8108472 2.40468158,17.9682818 C2.40468158,22.1257165 4.05644066,26.113934 6.99644044,29.0536683 C9.93650658,31.9937345 13.9243922,33.6454272 18.0818269,33.6454272 C22.2392616,33.6454272 26.2274791,31.9936681 29.1672134,29.0536683 C32.1072796,26.1136022 33.7589723,22.1257165 33.7589723,17.9682818 C33.7543064,13.8117098 32.1010417,9.82727487 29.1620374,6.88754053 C26.2227675,3.94853615 22.2380671,2.29525079 18.0812961,2.29060561 L18.0818269,2.29113649 Z M18.0818269,32.4848625 C14.2319031,32.4848625 10.5393844,30.9554044 7.81730983,28.2331307 C5.09503619,25.5108571 3.56564438,21.8185375 3.56564438,17.9686136 C3.56564438,14.1186898 5.09503619,10.4261711 7.81730983,7.70409653 C10.5395835,4.9818229 14.2319031,3.45243109 18.0818269,3.45243109 C21.9317508,3.45243109 25.6242695,4.9818229 28.346344,7.70409653 C31.0686177,10.4263702 32.5980095,14.1186898 32.5980095,17.9686136 C32.5936028,21.8172103 31.0629107,25.5070746 28.3416325,28.2284856 C25.6200888,30.9497638 21.9304236,32.4804164 18.0817606,32.4848625 L18.0818269,32.4848625 Z M17.5011796,6.3556676 L17.5011796,5.194373 C17.5011796,4.87372297 17.7611769,4.61372569 18.0818269,4.61372569 C18.402477,4.61372569 18.6624742,4.87372297 18.6624742,5.194373 L18.6624742,6.3556676 C18.6624742,6.67631763 18.402477,6.9363149 18.0818269,6.9363149 C17.7611769,6.9363149 17.5011796,6.67631763 17.5011796,6.3556676 Z M10.2805816,9.3464989 C10.3928224,9.4545922 10.4565874,9.60338391 10.457888,9.75917655 C10.4591841,9.9149692 10.398009,10.0645373 10.2878413,10.174701 C10.177671,10.2848714 10.0281029,10.3460418 9.87231685,10.3447477 C9.7165242,10.3434517 9.56773914,10.2796841 9.4596392,10.1674413 L8.63843801,9.34650554 C8.41680992,9.1189117 8.41888034,8.75522741 8.64362243,8.53048041 C8.8683628,8.30574004 9.23204709,8.30366298 9.45964756,8.52529599 L10.2805816,9.3464989 Z M7.04946183,17.9686136 C7.04946183,18.122588 6.98828616,18.2703445 6.87941512,18.3792142 C6.77054409,18.4880839 6.62278892,18.5492609 6.46881453,18.5492609 L5.30751993,18.5492609 C4.9868699,18.5492609 4.72687263,18.2892637 4.72687263,17.9686136 C4.72687263,17.6479636 4.9868699,17.3879663 5.30751993,17.3879663 L6.46881453,17.3879663 C6.62278892,17.3879663 6.77054541,17.449142 6.87941512,17.558013 C6.98828483,17.6668841 7.04946183,17.8146392 7.04946183,17.9686136 Z M10.2805816,25.769859 C10.3897101,25.8787287 10.4508871,26.0262264 10.4508871,26.1802008 C10.4508871,26.3341752 10.3897121,26.4819317 10.2805816,26.5908014 L9.45964583,27.4120026 C9.35129373,27.5229493 9.20276083,27.5861967 9.04749242,27.5872449 C8.89222402,27.5882689 8.74317351,27.526834 8.63326196,27.4171852 C8.52361584,27.3072803 8.46218004,27.1582298 8.46320237,27.0029548 C8.46425205,26.8476864 8.5275012,26.6991535 8.63844465,26.5908014 L9.45964583,25.7698656 C9.56851554,25.6607371 9.71627203,25.5995601 9.87024643,25.5995601 C10.0242208,25.5995601 10.1717185,25.6607351 10.2805882,25.7698656 L10.2805816,25.769859 Z M18.6624742,29.581626 L18.6624742,30.7429206 C18.6624742,31.0635707 18.402477,31.3235679 18.0818269,31.3235679 C17.7611769,31.3235679 17.5011796,31.0635707 17.5011796,30.7429206 L17.5011796,29.581626 C17.5011796,29.260976 17.7611769,29.0009787 18.0818269,29.0009787 C18.402477,29.0009787 18.6624742,29.260976 18.6624742,29.581626 Z M27.5248111,26.5907947 C27.6357578,26.6991468 27.6990052,26.8476797 27.7000534,27.0029481 C27.7010774,27.1582165 27.6396425,27.3072671 27.5299937,27.4171786 C27.4200888,27.5268247 27.2710383,27.5882605 27.1157633,27.5872382 C26.9604949,27.5861885 26.811962,27.5229394 26.7036099,27.4119959 L25.8826741,26.5907947 C25.6625988,26.3629421 25.6657111,26.0008173 25.8896731,25.7768268 C26.113635,25.5528363 26.4757619,25.5497505 26.7036411,25.7698278 L27.5248111,26.5907947 Z M31.4363831,17.96868 C31.4363831,18.1226544 31.3752074,18.2704109 31.2663364,18.3792806 C31.1574653,18.4881503 31.0097102,18.5493273 30.8557358,18.5493273 L29.6944412,18.5493273 C29.3737911,18.5493273 29.1137939,18.28933 29.1137939,17.96868 C29.1137939,17.64803 29.3737911,17.3880327 29.6944412,17.3880327 L30.8557358,17.3880327 C31.0097102,17.3880327 31.1574667,17.4492084 31.2663364,17.5580794 C31.3752061,17.6669504 31.4363831,17.8147056 31.4363831,17.96868 Z M27.5248111,8.52569588 C27.7513697,8.7525133 27.7513697,9.12007963 27.5248111,9.34689706 L26.7036099,10.1678328 C26.4757572,10.3879081 26.1136324,10.3847958 25.8896419,10.1608338 C25.6656514,9.93687188 25.6625657,9.57474505 25.8826429,9.34686587 L26.7035787,8.52566469 C26.9303961,8.29910606 27.2979624,8.29910606 27.5247799,8.52566469 L27.5248111,8.52569588 Z M19.6492428,18.7152265 C19.7627776,18.4827088 19.8224018,18.2273766 19.823437,17.96868 C19.8224002,17.6096608 19.710161,17.2596931 19.5022694,16.9670468 C19.2943778,16.6741285 19.0009418,16.453018 18.6621557,16.3337763 L18.6621557,9.25916955 C18.6621557,8.93851952 18.4021584,8.67852225 18.0815084,8.67852225 C17.7608584,8.67852225 17.5008611,8.93851952 17.5008611,9.25916955 L17.5008611,16.3337763 C17.0493033,16.4908629 16.6825134,16.8270677 16.4868187,17.2633428 C16.2911107,17.6996047 16.2841097,18.1972891 16.4671178,18.6389792 C16.6501259,19.0806694 17.0073255,19.427266 17.4542182,19.5972796 C17.9011109,19.7670675 18.3983175,19.7452948 18.8285938,19.5368816 L21.7354801,22.4437679 C21.9633327,22.6638432 22.3254575,22.6604721 22.549448,22.4365095 C22.7734385,22.2125469 22.7767831,21.8504207 22.5567065,21.6225415 L19.6492428,18.7152265 Z M17.5008478,17.96868 C17.5008478,17.64803 17.7608451,17.3880327 18.0814951,17.3880327 C18.4021452,17.3880327 18.6621455,17.64803 18.6621455,17.96868 C18.6626608,18.1249903 18.5983748,18.2748172 18.4845772,18.3821341 C18.3785543,18.4902274 18.2331337,18.550628 18.0814951,18.5493273 C17.7611039,18.5488089 17.5013654,18.2890712 17.5008478,17.96868 Z" id="Shape"></path>
            </g>
        </g>
    </g>
</svg>
