
<svg width="42px" height="27px" viewBox="0 0 42 27" version="1.1" xmlns="http://www.w3.org/2000/svg" xmlns:xlink="http://www.w3.org/1999/xlink">
    <g id="Page-1" stroke="none" stroke-width="1" fill="none" fill-rule="evenodd">
        <g id="Desktop-HD" transform="translate(-603.000000, -725.000000)" fill="#E17B32" fill-rule="nonzero">
            <g id="icon-training-copy" transform="translate(603.000000, 725.000000)">
                <path d="M41.3416573,7.41251197 L23.3189619,0.436026612 C21.8270742,-0.145342204 20.175085,-0.145342204 18.6831973,0.436026612 L0.658342708,7.41251197 C0.261785456,7.56646619 0,7.95190986 0,8.38183254 C0,8.81175522 0.261785456,9.19719889 0.658342708,9.35115311 L8.7876644,12.5006254 L8.7876644,19.9054914 C8.78558471,20.2776045 8.98206079,20.6218866 9.30154981,20.8059651 C16.6272453,24.6985499 25.3749138,24.6985499 32.7006094,20.8059651 C33.0202741,20.6223481 33.2162371,20.2775161 33.2123356,19.9054914 L33.2123356,12.5006254 L36.8030559,11.114945 L36.8030559,19.7328278 C35.6076506,20.1703012 34.8103289,21.3180359 34.8079714,22.6047268 L34.8079714,25.9618325 C34.8079714,26.5351966 35.2671534,27 35.833583,27 L39.8388663,27 C40.405296,27 40.864478,26.5351966 40.864478,25.9618325 L40.864478,22.6047268 C40.8598253,21.3140911 40.0556433,20.165185 38.8542792,19.7328278 L38.8542792,10.312824 L41.3416573,9.35115311 C41.7382145,9.19719889 42,8.81175522 42,8.38183254 C42,7.95190986 41.7382145,7.56646619 41.3416573,7.41251197 Z M38.8132547,24.9302219 L36.8505579,24.9302219 L36.8505579,22.6047268 C36.8921199,22.087324 37.3190742,21.6888578 37.8319063,21.6888578 C38.3447385,21.6888578 38.7716928,22.087324 38.8132547,22.6047268 L38.8132547,24.9302219 Z M19.4151601,2.37466775 C20.4363269,1.97908208 21.5658323,1.97908208 22.5869991,2.37466775 L38.094247,8.38073973 L22.574044,14.3889973 C21.5521219,14.7845226 20.4219679,14.7845226 19.4000458,14.3889973 L3.90575302,8.38073973 L19.4151601,2.37466775 Z M31.1611123,19.2760341 C27.9837034,20.802314 24.5168283,21.6121565 21,21.6496127 C17.4875425,21.6103322 14.0252706,20.8005325 10.8518428,19.2760341 L10.8518428,13.2896326 L18.6939932,16.3276385 C20.1858809,16.9090073 21.8378701,16.9090073 23.3297578,16.3276385 L31.1719082,13.2896326 L31.1611123,19.2760341 Z" id="Shape"></path>
            </g>
        </g>
    </g>
</svg>
