
<svg width="40px" height="45px" viewBox="0 0 40 45" version="1.1" xmlns="http://www.w3.org/2000/svg" xmlns:xlink="http://www.w3.org/1999/xlink">
    <g id="Page-1" stroke="none" stroke-width="1" fill="none" fill-rule="evenodd">
        <g id="Desktop-HD" transform="translate(-1117.000000, -718.000000)" fill="#D22261" fill-rule="nonzero">
            <g id="noun-medal-1485530" transform="translate(1117.000000, 718.000000)">
                <path d="M20.0302333,0 C24.635925,0 28.89581,1.86146958 31.8891953,5.00286031 C34.9979557,8.02766798 36.8402165,12.332638 36.8402165,16.9859904 C36.8402165,20.4762458 35.8039895,23.7338176 34.0767855,26.4099213 L39.8337609,36.6483256 C40.1790744,37.2299866 39.948762,37.8116637 39.4884474,38.1608501 C39.258135,38.2770552 39.1431339,38.2770552 38.9128135,38.2770552 L32.004634,37.8115994 L29.0111691,44.0943005 C28.6658556,44.5597563 28.0899193,44.7924802 27.5143173,44.5597563 C27.2840048,44.4435511 27.1690038,44.2108272 27.0536844,44.0943005 L21.296709,33.9724792 C20.9513955,34.0886844 20.4907547,34.0886844 20.0301299,34.0886844 C19.569505,34.0886844 19.2241756,34.0886844 18.8788462,33.9724792 L12.8915981,44.4432456 C12.776597,44.6759695 12.6612856,44.7921747 12.4309652,44.9087014 C11.9703324,45.1414253 11.2796816,44.9087014 11.0494089,44.4432456 L7.94064854,38.1605446 L1.14744617,38.6260004 C0.917133732,38.6260004 0.686813338,38.6260004 0.57181228,38.5097952 C-0.00382160882,38.1608662 -0.119132987,37.5788996 0.11117945,36.9972708 L6.09842754,26.6422834 C4.25624632,23.8499182 3.10496263,20.5923465 3.10496263,16.9859904 C3.10496263,12.3320752 5.0622006,8.02758758 8.05598379,5.00286031 C11.1647442,1.86154999 15.309811,0 20.0303208,0 L20.0302333,0 Z M16.5762708,33.7399402 C13.3523264,33.0417605 10.3585432,31.4130228 8.05589626,29.0860251 C7.82558382,28.8533012 7.71058276,28.6205692 7.48026237,28.3878453 L2.98986609,36.4155133 L8.51648931,36.0665842 C8.97712213,35.9503791 9.43773905,36.2993081 9.55271624,36.6482452 L12.0858745,41.6511055 L16.5762708,33.739699 L16.5762708,33.7399402 Z M32.6952292,28.2716321 L31.8892749,29.0860251 C29.7017642,31.2964398 26.8232765,32.9252257 23.598982,33.7399402 L27.9743215,41.302482 L30.3921844,36.2996217 C30.6224968,35.8341659 30.9678182,35.601442 31.4284113,35.601442 L37.07033,35.950371 L32.6952292,28.2716321 Z M20.9508465,6.74798804 L23.1383571,13.3795538 L29.9315595,13.3795538 C30.5071934,13.3795538 30.9677864,13.8450097 30.9677864,14.4266305 C30.9677864,14.7755595 30.8527854,15.1248102 30.6224729,15.2410234 L24.9805542,19.3129881 L27.1680649,25.9445539 C27.3983773,26.5262149 27.0530638,27.107892 26.4771196,27.2243947 C26.1318061,27.3405998 25.7861743,27.3405998 25.4408927,27.1081895 L20.0292466,23.0362248 L14.5026234,27.1081895 C14.0419906,27.4571186 13.3513397,27.3409134 13.0057716,26.8754656 C12.7754592,26.6427417 12.7754592,26.1772859 12.8907706,25.94457 L14.963304,19.3130042 L9.43668078,15.2410395 C8.97604795,14.8921104 8.86104689,14.3101439 9.20636835,13.7285151 C9.43668078,13.4957912 9.78200224,13.2630592 10.1276181,13.379586 L16.9208205,13.379586 L18.9933539,6.74802021 C19.2236663,6.1663592 19.7993082,5.93362726 20.3749102,6.04984047 C20.6052227,6.16604563 20.9505441,6.39876953 20.9505441,6.74802021 L20.9508465,6.74798804 Z M21.29616,14.775656 L20.0295808,10.5871887 L18.6480245,14.775656 C18.5330234,15.1245851 18.0723906,15.4738358 17.6117976,15.4738358 L13.236458,15.4738358 L16.8058433,18.0335172 C17.1511568,18.3824463 17.3814772,18.8479102 17.2664761,19.1968553 L15.8849198,23.5015037 L19.3390095,20.8256412 C19.684323,20.5929173 20.2602593,20.5929173 20.6055887,20.8256412 L24.1749739,23.5015037 L22.7934176,19.3130364 C22.6784165,18.8475805 22.7934176,18.3821408 23.1387311,18.0331956 L26.7081163,15.4735142 L22.4480723,15.4735142 C21.9874394,15.4735142 21.5268225,15.2407903 21.2967886,14.7753344 L21.29616,14.775656 Z M30.3924867,6.51514354 C27.7443512,3.83928102 24.0599092,2.09399248 20.0302174,2.09399248 C15.8851505,2.09399248 12.2007881,3.83928102 9.55257301,6.51514354 C6.90435795,9.19100607 5.29252895,12.9140256 5.29252895,16.9859099 C5.29252895,21.1743773 6.90443752,24.8973165 9.55257301,27.5732594 C12.2007085,30.2492023 15.8851505,31.8779078 20.0302174,31.8779078 C24.0599888,31.8779078 27.7443512,30.2491219 30.3924867,27.5732594 C33.1559177,24.8973969 34.7678262,21.1743773 34.7678262,16.9859099 C34.7678262,12.9139452 33.1559177,9.19100607 30.3924867,6.51514354 Z" id="Shape"></path>
            </g>
        </g>
    </g>
</svg>
