
<svg width="35px" height="45px" viewBox="0 0 35 45" version="1.1" xmlns="http://www.w3.org/2000/svg" xmlns:xlink="http://www.w3.org/1999/xlink">
    <g id="Page-1" stroke="none" stroke-width="1" fill="none" fill-rule="evenodd">
        <g id="Desktop-HD" transform="translate(-864.000000, -716.000000)" fill="#E55615" fill-rule="nonzero">
            <g id="noun-money-bag-526464" transform="translate(864.000000, 717.000000)">
                <path d="M8.33790428,7.3247811 L13.3468767,12 L14.4830024,10.8053428 L9.62868537,6.28578729 C9.57689385,6.12981159 9.62868537,5.97417356 9.6804769,5.81819786 C9.78373435,5.61045819 9.93877577,5.4544825 10.1452907,5.35060844 L12.417542,4.41544648 L14.069913,7.53225908 L15.5157691,6.75305593 L13.5018082,3.0648305 L13.4500167,3.11693129 L13.2952942,2.70144351 C13.3470857,2.18209011 13.8115646,1.76628154 14.3282043,1.76628154 L21.5062127,1.76628154 C22.0742755,1.76628154 22.4872633,2.18176933 22.5391228,2.70144351 L22.4358654,3.06515887 L20.4736801,6.70163721 L21.9195362,7.48084036 L23.5719072,4.41577485 L25.7923829,5.29885206 C25.9988895,5.40272612 26.1539393,5.55869337 26.2571967,5.76644148 C26.3089882,5.92241718 26.3604542,6.07805521 26.3089882,6.23403091 L21.4546712,10.7535865 L22.5907969,11.9482436 L27.5997693,7.27302472 C27.7030268,7.16915066 27.7548191,7.06528505 27.8062758,6.96141099 C28.0645747,6.33818354 28.0645747,5.66283756 27.8062758,5.03925556 C27.547977,4.4160281 27.0831632,3.94843024 26.4636353,3.68859737 L24.2945994,2.80552016 L24.2945994,2.70164611 C24.2945994,1.1949869 23.1070338,0.00032972943 21.6093182,0.00032972943 L14.3795343,0 C12.8818188,0 11.6942532,1.19465717 11.6942532,2.70131638 L11.6942532,2.80519043 L9.52521729,3.68826764 C8.2857922,4.20762104 7.6663314,5.66217017 8.18257671,6.90891209 C8.18290457,7.11665176 8.23436823,7.22052582 8.33762652,7.3247291 L8.33790428,7.3247811 Z" id="Path" stroke="#E55615" stroke-width="0.5"></path>
                <path d="M9.62587986,44 L25.3749008,44 C25.6128951,44 30.3232897,43.9480016 33.082867,40.5780075 C34.65313,38.6079839 35.2716786,36.0156879 34.8908073,32.8009511 C33.5586082,21.3429168 23.1863212,12.1141443 21.5680433,11.3887496 C20.426048,10.8704168 14.5737276,10.8704168 13.4318095,11.3887496 C11.8141502,12.1664216 1.44124459,21.3429168 0.109045509,32.8009511 C-0.271508794,36.0152667 0.347039821,38.6596293 1.91698579,40.5780075 C4.72457796,43.9480176 9.38758401,44 9.62557059,44 L9.62587986,44 Z M2.21951004,32.7534374 C3.40915097,22.1967261 13.3381916,13.9200003 14.162018,13.5237612 C14.5279738,13.3749541 16.037933,13.2758621 17.5020836,13.2758621 C19.0121097,13.2758621 20.4761859,13.3749621 20.8421492,13.5237612 C21.6199513,13.9201533 31.5489176,22.1967261 32.7846572,32.7534374 C33.1050126,35.3802932 32.6016829,37.4616759 31.366159,38.9484584 C29.1242807,41.6744545 25.0975692,41.7238233 25.0519911,41.7238233 L9.90711846,41.7241379 C9.86122881,41.7241379 5.83482884,41.6744317 3.5929505,38.948773 C2.35743404,37.4616684 1.89994274,35.3802857 2.22003051,32.7534299 L2.21951004,32.7534374 Z" id="Shape"></path>
                <path d="M16.8473756,35 C17.9660623,35 18.9831179,34.7506856 19.9997604,34.3021271 L19.2880694,32.8571128 C18.5253809,33.2060249 17.7117117,33.4053096 16.8473508,33.4053096 C14.6099772,33.4053096 12.6779104,32.0596583 11.7625686,30.1161286 L18.4743588,30.1161286 L18.4743588,28.5215435 L11.2031839,28.5215435 C11.1521873,28.1726313 11.1015114,27.8237192 11.1015114,27.4751147 C11.1015114,27.1262026 11.1525079,26.7772904 11.2031839,26.428686 L18.4233779,26.428686 L18.4233779,24.8341008 L11.7118356,24.8341008 C12.6778277,22.8905712 14.6102251,21.5449198 16.7966178,21.5449198 C17.6609787,21.5449198 18.4746893,21.7442045 19.2879867,22.1427819 L20,20.7474896 C18.9829444,20.2492739 17.9153211,20 16.7965517,20 C13.6441669,20 11.0001033,22.0431356 9.93206685,24.8838471 L8,24.8838471 L8,26.4784322 L9.52537681,26.4784322 C9.47438026,26.8273444 9.42370431,27.1762565 9.42370431,27.524861 C9.42370431,27.8737731 9.47470086,28.2226853 9.52537681,28.5712897 L8,28.5712897 L8,30.1658749 L9.93206685,30.1658749 C11.0507536,33.0068293 13.6948172,35 16.847202,35 L16.8473756,35 Z" id="Path" stroke="#E55615" stroke-width="0.5"></path>
            </g>
        </g>
    </g>
</svg>
