
<svg width="31px" height="44px" viewBox="0 0 31 44" version="1.1" xmlns="http://www.w3.org/2000/svg" xmlns:xlink="http://www.w3.org/1999/xlink">
    <g id="Page-1" stroke="none" stroke-width="1" fill="none" fill-rule="evenodd">
        <g id="Desktop-HD" transform="translate(-393.000000, -716.000000)" fill-rule="nonzero">
            <g id="noun-map-1278723" transform="translate(392.878049, 716.000000)">
                <path d="M2.67127287,24.213852 L15.6160118,44 L28.5607507,24.213852 C30.6256281,21.0604762 31.4854356,17.2594381 30.9810755,13.5160691 C30.4771116,9.77260518 28.6428932,6.34009898 25.8184579,3.8548121 C22.9943998,1.36981025 19.3716459,0 15.6218589,0 C11.8719776,0 8.24922369,1.36981025 5.42525995,3.8548121 C2.6012019,6.34019399 0.766908061,9.77270018 0.262642295,13.5160691 C-0.241321686,17.2591531 0.61850473,21.0601912 2.68334431,24.213852 L2.67127287,24.213852 Z M6.06154075,6.00572677 L6.06191144,6.00572677 C9.23147132,2.7964238 13.7979987,1.38630714 18.2265376,2.24886185 C22.6550765,3.11139759 26.3577997,6.13244472 28.0897737,10.2962109 C29.8217477,14.4598821 29.3531183,19.2138922 26.8416136,22.9604186 L15.5909003,40 L4.34018693,22.9604186 C2.63639902,20.366115 1.87755715,17.2650345 2.19111562,14.1779916 C2.50474052,11.0905693 3.87155747,8.20508003 6.06210125,6.00620101 L6.06154075,6.00572677 Z" id="Shape" fill="#D22261"></path>
                <path d="M15.1219512,22 C17.2435274,22 19.2786693,21.1569136 20.7787565,19.6568637 C22.2792425,18.1564151 23.1219512,16.1217227 23.1219512,13.9998006 C23.1219512,11.8782773 22.2792326,9.84358489 20.7787565,8.34313628 C19.2786693,6.84268767 17.2435274,6 15.1219512,6 C13.0003751,6 10.9652331,6.84269764 9.4651459,8.34313628 C7.96465989,9.84358489 7.12195122,11.8782773 7.12195122,13.9998006 C7.12467724,16.1209251 7.96856787,18.1537235 9.46823639,19.6533745 C10.9679249,21.1530256 13.0011726,21.9969096 15.1219512,22 L15.1219512,22 Z" id="Shape" stroke="#D22261" stroke-width="2" fill="#FFFFFF"></path>
            </g>
        </g>
    </g>
</svg>
