<?xml version="1.0" encoding="utf-8"?>
<!-- Generator: Adobe Illustrator 25.4.1, SVG Export Plug-In . SVG Version: 6.00 Build 0)  -->
<svg version="1.1" id="Calque_1" xmlns="http://www.w3.org/2000/svg" xmlns:xlink="http://www.w3.org/1999/xlink" x="0px" y="0px"
	 viewBox="0 0 153 46" style="enable-background:new 0 0 153 46;" xml:space="preserve">
<style type="text/css">
	.st0{fill-rule:evenodd;clip-rule:evenodd;fill:#263F92;}
	.st1{fill:#263F92;}
</style>
<g>
	<path class="st0" d="M19.1,17.8c0.4,0,0.8,0.3,0.8,0.8c0,0.4-0.3,0.8-0.8,0.8c-0.4,0-0.8-0.3-0.8-0.8
		C18.4,18.1,18.7,17.8,19.1,17.8L19.1,17.8z"/>
	<path class="st1" d="M21.4,19.3h0.1c0.4-0.1,0.7-0.5,0.6-0.9c-0.1-0.4-0.5-0.7-0.9-0.6c-0.4,0.1-0.7,0.5-0.6,0.9
		C20.8,19,21.1,19.3,21.4,19.3L21.4,19.3z"/>
	<path class="st1" d="M23.6,19.3c0.1,0,0.1,0,0.2,0c0.1,0,0.3,0,0.4-0.1c0.2-0.1,0.3-0.3,0.3-0.5c0-0.2,0-0.4-0.1-0.6
		c-0.1-0.2-0.3-0.3-0.5-0.3c-0.2,0-0.4,0-0.6,0.1c-0.2,0.1-0.3,0.3-0.3,0.5C23,18.8,23.2,19.2,23.6,19.3L23.6,19.3z"/>
	<path class="st1" d="M38,19.4C38,19.4,38,19.4,38,19.4l5.4,0c0.5,0,0.8-0.4,0.8-0.8c0-0.5-0.4-0.8-0.8-0.8l-5.4,0
		c-0.5,0-0.8,0.4-0.8,0.8c0,0.2,0.1,0.4,0.2,0.6C37.6,19.3,37.8,19.4,38,19.4L38,19.4z"/>
	<path class="st0" d="M19.1,23.1c0.4,0,0.8,0.3,0.8,0.8s-0.3,0.8-0.8,0.8c-0.4,0-0.8-0.3-0.8-0.8S18.7,23.1,19.1,23.1L19.1,23.1z"/>
	<path class="st1" d="M21.4,24.6h0.1c0.4-0.1,0.7-0.5,0.6-0.9c-0.1-0.4-0.5-0.7-0.9-0.6c-0.4,0.1-0.7,0.5-0.6,0.9
		C20.8,24.3,21.1,24.6,21.4,24.6L21.4,24.6z"/>
	<path class="st1" d="M23.6,24.6c0.1,0,0.1,0,0.2,0c0.1,0,0.3,0,0.4-0.1c0.2-0.1,0.3-0.3,0.3-0.5c0-0.2,0-0.4-0.1-0.6
		c-0.1-0.2-0.3-0.3-0.5-0.3c-0.2,0-0.4,0-0.6,0.1c-0.2,0.1-0.3,0.3-0.3,0.5C23,24.1,23.2,24.5,23.6,24.6L23.6,24.6z"/>
	<path class="st1" d="M38,24.7C38,24.7,38,24.7,38,24.7l5.4,0c0.5,0,0.8-0.4,0.8-0.8c0-0.5-0.4-0.8-0.8-0.8L38,23
		c-0.5,0-0.8,0.4-0.8,0.8c0,0.2,0.1,0.4,0.2,0.6C37.6,24.6,37.8,24.7,38,24.7L38,24.7z"/>
	<path class="st1" d="M19.1,29.9c0.4,0,0.8-0.3,0.8-0.8c0-0.4-0.3-0.8-0.8-0.8c-0.4,0-0.8,0.3-0.8,0.8
		C18.4,29.6,18.7,29.9,19.1,29.9L19.1,29.9z"/>
	<path class="st1" d="M21,29.8c0.1,0.1,0.3,0.2,0.5,0.2h0.1c0.2,0,0.4-0.1,0.5-0.3c0.1-0.2,0.2-0.4,0.1-0.6c0-0.2-0.1-0.4-0.3-0.5
		c-0.2-0.1-0.4-0.2-0.6-0.1c-0.2,0-0.4,0.1-0.5,0.3c-0.1,0.2-0.2,0.4-0.1,0.6C20.7,29.5,20.8,29.7,21,29.8L21,29.8z"/>
	<path class="st1" d="M23.6,29.9c0.1,0,0.1,0,0.2,0c0.1,0,0.3,0,0.4-0.1c0.2-0.1,0.3-0.3,0.3-0.5c0.1-0.4-0.2-0.8-0.6-0.9
		c-0.4-0.1-0.8,0.2-0.9,0.6c0,0.2,0,0.4,0.1,0.6C23.3,29.7,23.4,29.9,23.6,29.9L23.6,29.9z"/>
	<path class="st1" d="M38,30C38,30,38,30,38,30l5.4,0c0.5,0,0.8-0.4,0.8-0.8s-0.4-0.8-0.8-0.8l-5.4,0c-0.5,0-0.8,0.4-0.8,0.8
		c0,0.2,0.1,0.4,0.2,0.6C37.6,29.9,37.8,30,38,30L38,30z"/>
	<path class="st1" d="M50.3,35.9c-0.2-0.2-0.4-0.3-0.7-0.3h0c-1.5,0-2.3,1-2.8,1.6c-0.1,0.1-0.1,0.1-0.1,0.2
		c-0.4,0.4-0.5,0.5-0.7,0.5c-0.3,0-0.3-0.1-0.8-0.6c-0.4-0.5-1.1-1.4-2.4-1.6l0-2.7h3.4c0.3,0,0.5-0.1,0.7-0.4
		c0.2-0.2,0.3-0.5,0.3-0.8V15.9c0-0.6-0.5-1.1-1-1.1h-30c-0.3,0-0.5,0.1-0.7,0.4c-0.2,0.2-0.3,0.5-0.3,0.8v15.9c0,0.6,0.5,1.1,1,1.1
		h3.3l0,2.9c-0.9,0.3-1.4,1-1.8,1.4c-0.1,0.1-0.1,0.1-0.1,0.1c-0.4,0.4-0.4,0.5-0.6,0.5c-0.3,0-0.3,0-0.8-0.6
		c-0.5-0.6-1.3-1.6-2.9-1.6c-0.5,0-1,0.5-1,1.1c0,0.6,0.5,1.1,1,1.1c0.6,0,1,0.4,1.4,0.9c0.5,0.6,1.1,1.3,2.2,1.3
		c1.1,0,1.7-0.7,2.1-1.1c0,0,0-0.1,0.1-0.1l0.1-0.1c0.5-0.6,0.8-0.9,1.4-0.9h0c0.6,0,1,0.4,1.4,0.9c0.5,0.6,1.1,1.3,2.2,1.3
		c1.1,0,1.7-0.7,2.1-1.1c0,0,0-0.1,0.1-0.1l0.1-0.1c0.5-0.6,0.8-0.9,1.4-0.9h0c0.6,0,1,0.4,1.4,0.9c0.5,0.6,1.1,1.3,2.2,1.3
		c1.1,0,1.7-0.7,2.1-1.1c0,0,0-0.1,0.1-0.1l0.1-0.1c0.5-0.6,0.8-0.9,1.4-0.9h0c0.6,0,0.9,0.3,1.4,0.9c0.5,0.6,1.1,1.3,2.2,1.3h0
		c1.1,0,1.6-0.7,2.1-1.1c0,0,0-0.1,0.1-0.1l0.1-0.1c0.5-0.6,0.8-0.9,1.4-0.9h0c0.6,0,0.9,0.3,1.4,0.9c0.5,0.6,1.1,1.3,2.2,1.3h0
		c1.1,0,1.6-0.7,2.1-1.1c0,0,0-0.1,0.1-0.1l0.1-0.1c0.4-0.5,0.8-0.9,1.4-0.9c0.6,0,1-0.5,1-1.1C50.7,36.5,50.6,36.1,50.3,35.9
		L50.3,35.9z M39.5,37.4c-0.4,0.4-0.4,0.5-0.6,0.5c-0.3,0-0.3,0-0.8-0.6c-0.5-0.6-1.3-1.6-2.9-1.6h0c-1.5,0-2.3,1-2.8,1.6
		c-0.1,0.1-0.1,0.1-0.1,0.2c-0.4,0.4-0.4,0.5-0.6,0.5c-0.3,0-0.3,0-0.8-0.6c-0.5-0.6-1.3-1.6-2.9-1.6h0c-1.5,0-2.3,1-2.8,1.6
		C25,37.3,25,37.4,25,37.4c-0.4,0.4-0.4,0.5-0.6,0.5c-0.3,0-0.3,0-0.8-0.6c-0.4-0.5-1-1.2-1.9-1.5l0-2.9h19.3l0,3.1
		c-0.6,0.3-1,0.8-1.4,1.2C39.5,37.3,39.5,37.3,39.5,37.4L39.5,37.4z M45.3,27.6v3h-28v-3H45.3L45.3,27.6z M45.3,22.3v2.9h-28v-2.9
		H45.3L45.3,22.3z M45.3,17.1V20h-28v-2.9H45.3L45.3,17.1z"/>
	<path class="st1" d="M13.8,12.2c0.2,0.4,0.5,0.7,0.9,0.7c0.1,0,0.2,0,0.3-0.1h0c0.2-0.1,0.5-0.3,0.6-0.5c0.1-0.2,0.1-0.5,0-0.8
		l-1-2.5c-0.1-0.2-0.3-0.5-0.5-0.6c-0.2-0.1-0.5-0.1-0.8,0c-0.2,0.1-0.5,0.3-0.6,0.5c-0.1,0.2-0.1,0.5,0,0.8L13.8,12.2L13.8,12.2z"
		/>
	<path class="st1" d="M12.9,18c0.5-0.2,0.8-0.8,0.6-1.3c-0.1-0.2-0.3-0.5-0.5-0.6c-0.2-0.1-0.5-0.1-0.8,0l-2.5,1
		c-0.2,0.1-0.5,0.3-0.6,0.5c-0.1,0.2-0.1,0.5,0,0.8C9.2,18.8,9.6,19,10,19c0.1,0,0.2,0,0.3-0.1L12.9,18L12.9,18z"/>
	<path class="st1" d="M9.6,13.9l2.2,1c0.1,0.1,0.3,0.1,0.4,0.1c0.4,0,0.8-0.2,0.9-0.6c0.1-0.2,0.1-0.5,0-0.8
		c-0.1-0.2-0.3-0.5-0.5-0.5l-2.2-1c-0.2-0.1-0.5-0.1-0.8,0c-0.2,0.1-0.5,0.3-0.5,0.5C9,12.8,8.9,13,9,13.3
		C9.1,13.5,9.3,13.7,9.6,13.9L9.6,13.9z"/>
	<polygon class="st1" points="53.9,29.6 53.9,28.4 55,28.2 55,20.6 53.9,20.4 53.9,19.2 58.2,19.2 58.2,20.4 57.1,20.6 57.1,28 
		60.1,28 60.2,26.7 61.8,26.7 61.8,29.6 53.9,29.6 53.9,29.6 	"/>
	<path class="st1" d="M67.2,29.6c-0.1-0.1-0.1-0.3-0.2-0.4c0-0.1-0.1-0.3-0.1-0.4c-0.2,0.3-0.5,0.5-0.9,0.7
		c-0.4,0.2-0.8,0.3-1.2,0.3c-0.8,0-1.4-0.2-1.8-0.6c-0.5-0.4-0.7-1-0.7-1.7c0-0.7,0.3-1.3,0.9-1.7c0.6-0.4,1.4-0.6,2.6-0.6h1.1v-0.8
		c0-0.4-0.1-0.7-0.3-0.9c-0.2-0.2-0.5-0.3-1-0.3c-0.2,0-0.5,0-0.6,0.1c-0.2,0.1-0.3,0.1-0.5,0.2l-0.1,0.8h-1.6v-1.7
		c0.4-0.3,0.8-0.5,1.3-0.7c0.5-0.2,1-0.3,1.6-0.3c1,0,1.8,0.2,2.4,0.7c0.6,0.5,0.9,1.1,0.9,2V28c0,0.1,0,0.2,0,0.3l0.6,0.1v1.3H67.2
		L67.2,29.6z M65.3,28.2c0.3,0,0.6-0.1,0.9-0.2c0.3-0.1,0.5-0.3,0.6-0.5v-1.2h-1.1c-0.5,0-0.8,0.1-1,0.3c-0.2,0.2-0.3,0.5-0.3,0.8
		c0,0.3,0.1,0.5,0.3,0.6C64.8,28.1,65,28.2,65.3,28.2L65.3,28.2z"/>
	<path class="st1" d="M78.1,19.2c1.2,0,2.1,0.3,2.8,0.9c0.7,0.6,1,1.4,1,2.4c0,1-0.3,1.8-1,2.4c-0.7,0.6-1.6,0.9-2.8,0.9h-1.8v2.3
		l1.1,0.2v1.3h-4.3v-1.3l1.1-0.2v-7.5l-1.1-0.2v-1.3L78.1,19.2L78.1,19.2L78.1,19.2z M76.3,24.2h1.8c0.6,0,1-0.2,1.3-0.5
		s0.5-0.7,0.5-1.2c0-0.5-0.2-0.9-0.5-1.2c-0.3-0.3-0.7-0.5-1.3-0.5h-1.8V24.2L76.3,24.2z"/>
	<polygon class="st1" points="82.1,19.7 82.1,18.4 85.3,18.4 85.3,28.2 86.3,28.4 86.3,29.6 82.2,29.6 82.2,28.4 83.2,28.2 
		83.2,19.9 82.1,19.7 	"/>
	<path class="st1" d="M91.6,29.6c-0.1-0.1-0.1-0.3-0.2-0.4c0-0.1-0.1-0.3-0.1-0.4c-0.2,0.3-0.5,0.5-0.9,0.7
		c-0.4,0.2-0.8,0.3-1.2,0.3c-0.8,0-1.4-0.2-1.8-0.6c-0.5-0.4-0.7-1-0.7-1.7c0-0.7,0.3-1.3,0.9-1.7c0.6-0.4,1.4-0.6,2.6-0.6h1.1v-0.8
		c0-0.4-0.1-0.7-0.3-0.9c-0.2-0.2-0.5-0.3-1-0.3c-0.2,0-0.5,0-0.6,0.1c-0.2,0.1-0.3,0.1-0.5,0.2l-0.1,0.8h-1.6v-1.7
		c0.4-0.3,0.8-0.5,1.3-0.7c0.5-0.2,1-0.3,1.6-0.3c1,0,1.8,0.2,2.4,0.7c0.6,0.5,0.9,1.1,0.9,2V28c0,0.1,0,0.2,0,0.3l0.6,0.1v1.3H91.6
		L91.6,29.6z M89.8,28.2c0.3,0,0.6-0.1,0.9-0.2c0.3-0.1,0.5-0.3,0.6-0.5v-1.2h-1.1c-0.5,0-0.8,0.1-1,0.3c-0.2,0.2-0.3,0.5-0.3,0.8
		c0,0.3,0.1,0.5,0.3,0.6C89.2,28.1,89.5,28.2,89.8,28.2L89.8,28.2z"/>
	<path class="st1" d="M97.1,20v1.9h1.4v1.5h-1.4v4c0,0.3,0.1,0.5,0.2,0.6c0.1,0.1,0.3,0.2,0.5,0.2c0.2,0,0.3,0,0.4,0
		c0.1,0,0.2,0,0.4-0.1l0.2,1.5c-0.2,0.1-0.5,0.1-0.7,0.2c-0.2,0-0.5,0.1-0.8,0.1c-0.7,0-1.3-0.2-1.7-0.6c-0.4-0.4-0.6-1-0.6-1.9v-4
		h-1.1v-1.5H95V20H97.1L97.1,20z"/>
	<path class="st1" d="M102.6,29.8c-1.1,0-2-0.4-2.7-1.1c-0.7-0.7-1-1.6-1-2.7v-0.3c0-1.1,0.3-2.1,1-2.8c0.6-0.8,1.5-1.1,2.6-1.1
		c1.1,0,1.9,0.3,2.4,0.9c0.6,0.6,0.9,1.5,0.9,2.6v1.1h-4.6l0,0c0,0.5,0.2,0.9,0.5,1.3c0.3,0.3,0.7,0.5,1.2,0.5c0.5,0,0.8,0,1.1-0.1
		c0.3-0.1,0.6-0.2,1-0.4l0.6,1.3c-0.3,0.2-0.7,0.5-1.2,0.6C103.8,29.7,103.2,29.8,102.6,29.8L102.6,29.8z M102.4,23.3
		c-0.4,0-0.7,0.2-0.9,0.5c-0.2,0.3-0.4,0.7-0.4,1.2l0,0h2.6v-0.2c0-0.5-0.1-0.8-0.3-1.1C103.2,23.5,102.8,23.3,102.4,23.3
		L102.4,23.3z"/>
	<path class="st1" d="M106.5,28.4l1-0.2v-4.8h-1.1v-1.5h1.1V21c0-0.9,0.2-1.5,0.8-2c0.5-0.5,1.2-0.7,2.1-0.7c0.2,0,0.4,0,0.5,0
		c0.2,0,0.4,0.1,0.6,0.1l-0.2,1.6c-0.1,0-0.2,0-0.3-0.1c-0.1,0-0.2,0-0.4,0c-0.3,0-0.6,0.1-0.8,0.3c-0.2,0.2-0.3,0.5-0.3,0.8v0.9
		h1.5v1.5h-1.5v4.8l1,0.2v1.3h-4.1V28.4L106.5,28.4z"/>
	<path class="st1" d="M111.5,25.7c0-1.2,0.3-2.1,1-2.8c0.6-0.7,1.5-1.1,2.7-1.1c1.1,0,2.1,0.4,2.7,1.1c0.6,0.7,1,1.7,1,2.8v0.2
		c0,1.2-0.3,2.1-1,2.9c-0.6,0.7-1.5,1.1-2.7,1.1c-1.1,0-2.1-0.4-2.7-1.1c-0.6-0.7-1-1.7-1-2.9V25.7L111.5,25.7z M113.6,25.8
		c0,0.7,0.1,1.3,0.4,1.7c0.2,0.4,0.7,0.6,1.2,0.6c0.5,0,0.9-0.2,1.2-0.6c0.2-0.4,0.4-1,0.4-1.7v-0.2c0-0.7-0.1-1.2-0.4-1.7
		c-0.2-0.4-0.7-0.7-1.2-0.7c-0.5,0-0.9,0.2-1.2,0.7c-0.2,0.4-0.4,1-0.4,1.7V25.8L113.6,25.8z"/>
	<path class="st1" d="M119.1,28.4l1-0.2v-4.8l-1.1-0.2v-1.3h3.1l0.1,1.1c0.2-0.4,0.4-0.7,0.7-0.9c0.3-0.2,0.6-0.3,1-0.3
		c0.1,0,0.2,0,0.3,0c0.1,0,0.2,0,0.3,0.1l-0.2,1.9l-0.9,0c-0.3,0-0.6,0.1-0.8,0.2c-0.2,0.1-0.4,0.3-0.5,0.5v3.8l1,0.2v1.3h-4.1V28.4
		L119.1,28.4z"/>
	<path class="st1" d="M125.2,23.1v-1.3h3.1l0.1,1c0.2-0.4,0.6-0.7,0.9-0.9c0.4-0.2,0.8-0.3,1.3-0.3c0.5,0,0.9,0.1,1.3,0.3
		c0.4,0.2,0.6,0.5,0.8,1c0.2-0.4,0.5-0.7,0.9-1c0.4-0.2,0.8-0.4,1.4-0.4c0.8,0,1.4,0.3,1.8,0.8c0.5,0.5,0.7,1.3,0.7,2.4v3.2l1,0.2
		v1.3h-4v-1.3l0.9-0.2v-3.3c0-0.6-0.1-1-0.3-1.2c-0.2-0.2-0.5-0.3-0.8-0.3c-0.3,0-0.5,0.1-0.8,0.2c-0.2,0.1-0.4,0.3-0.5,0.5v4
		l0.8,0.2v1.3H130v-1.3l0.8-0.2v-3.2c0-0.6-0.1-1-0.3-1.2c-0.2-0.2-0.5-0.4-0.9-0.4c-0.3,0-0.5,0.1-0.7,0.2
		c-0.2,0.1-0.4,0.3-0.5,0.5v4.2l0.9,0.2v1.3h-4v-1.3l1-0.2v-4.8L125.2,23.1L125.2,23.1z"/>
	<path class="st1" d="M142,29.8c-1.1,0-2-0.4-2.7-1.1c-0.7-0.7-1-1.6-1-2.7v-0.3c0-1.1,0.3-2.1,1-2.8c0.6-0.8,1.5-1.1,2.6-1.1
		c1.1,0,1.9,0.3,2.4,0.9c0.6,0.6,0.9,1.5,0.9,2.6v1.1h-4.6l0,0c0,0.5,0.2,0.9,0.5,1.3c0.3,0.3,0.7,0.5,1.2,0.5c0.5,0,0.8,0,1.1-0.1
		c0.3-0.1,0.6-0.2,1-0.4l0.6,1.3c-0.3,0.2-0.7,0.5-1.2,0.6C143.2,29.7,142.7,29.8,142,29.8L142,29.8z M141.9,23.3
		c-0.4,0-0.7,0.2-0.9,0.5c-0.2,0.3-0.4,0.7-0.4,1.2l0,0h2.6v-0.2c0-0.5-0.1-0.8-0.3-1.1C142.6,23.5,142.3,23.3,141.9,23.3
		L141.9,23.3z"/>
</g>
</svg>
