<?xml version="1.0" encoding="utf-8"?>
<!-- Generator: Adobe Illustrator 25.4.1, SVG Export Plug-In . SVG Version: 6.00 Build 0)  -->
<svg version="1.1" id="Calque_1" xmlns="http://www.w3.org/2000/svg" xmlns:xlink="http://www.w3.org/1999/xlink" x="0px" y="0px"
	 viewBox="0 0 80 40" style="enable-background:new 0 0 80 40;" xml:space="preserve">
<style type="text/css">
	.st0{enable-background:new    ;}
	
		.st1{clip-path:url(#SVGID_00000160889541782654369570000008289531248030330253_);fill-rule:evenodd;clip-rule:evenodd;fill:#F4962E;}
	
		.st2{clip-path:url(#SVGID_00000148641897726941223100000009781420477312528803_);fill-rule:evenodd;clip-rule:evenodd;fill:#F4962E;}
	
		.st3{clip-path:url(#SVGID_00000170961617862811005160000006417234284502698379_);fill-rule:evenodd;clip-rule:evenodd;fill:#020203;}
	
		.st4{clip-path:url(#SVGID_00000173883887794695739990000001732897432270889885_);fill-rule:evenodd;clip-rule:evenodd;fill:#020203;}
	
		.st5{clip-path:url(#SVGID_00000111170109315646932310000018157877040785671834_);fill-rule:evenodd;clip-rule:evenodd;fill:#020203;}
	
		.st6{clip-path:url(#SVGID_00000163058657885615555750000001165889252884689307_);fill-rule:evenodd;clip-rule:evenodd;fill:#020203;}
	
		.st7{clip-path:url(#SVGID_00000031905244206284505520000017738615189018198950_);fill-rule:evenodd;clip-rule:evenodd;fill:#020203;}
	
		.st8{clip-path:url(#SVGID_00000179642247431943162800000002124748250308092091_);fill-rule:evenodd;clip-rule:evenodd;fill:#020203;}
</style>
<g class="st0">
	<g>
		<g>
			<defs>
				<rect id="SVGID_1_" x="3.8" y="11.8" width="72.2" height="21.8"/>
			</defs>
			<clipPath id="SVGID_00000080903532632612676280000005705323834544600966_">
				<use xlink:href="#SVGID_1_"  style="overflow:visible;"/>
			</clipPath>
			
				<path style="clip-path:url(#SVGID_00000080903532632612676280000005705323834544600966_);fill-rule:evenodd;clip-rule:evenodd;fill:#F4962E;" d="
				M48.5,28.8c-4.2,3.1-10.3,4.7-15.5,4.7c-7.3,0-13.9-2.7-18.9-7.2c-0.4-0.3,0-0.8,0.4-0.6c5.4,3.1,12.1,5,18.9,5
				c4.6,0,9.8-1,14.4-3C48.6,27.5,49.2,28.3,48.5,28.8z"/>
		</g>
		<g>
			<defs>
				<rect id="SVGID_00000113314424613263400220000011303526461080482219_" x="3.8" y="11.8" width="72.2" height="21.8"/>
			</defs>
			<clipPath id="SVGID_00000021829759506540767350000016798766814448585642_">
				<use xlink:href="#SVGID_00000113314424613263400220000011303526461080482219_"  style="overflow:visible;"/>
			</clipPath>
			
				<path style="clip-path:url(#SVGID_00000021829759506540767350000016798766814448585642_);fill-rule:evenodd;clip-rule:evenodd;fill:#F4962E;" d="
				M50.2,26.8c-0.5-0.7-3.5-0.3-4.9-0.2c-0.4,0.1-0.5-0.3-0.1-0.6c2.4-1.7,6.3-1.2,6.8-0.6s-0.1,4.5-2.4,6.4
				c-0.3,0.3-0.7,0.1-0.5-0.2C49.6,30.3,50.8,27.5,50.2,26.8z"/>
		</g>
		<g>
			<defs>
				<rect id="SVGID_00000144299565251392576320000016104204193299385788_" x="3.8" y="11.8" width="72.2" height="21.8"/>
			</defs>
			<clipPath id="SVGID_00000054947609762986815240000000294996993857430439_">
				<use xlink:href="#SVGID_00000144299565251392576320000016104204193299385788_"  style="overflow:visible;"/>
			</clipPath>
			
				<path style="clip-path:url(#SVGID_00000054947609762986815240000000294996993857430439_);fill-rule:evenodd;clip-rule:evenodd;fill:#020203;" d="
				M45.4,14.2v-1.6c0-0.2,0.2-0.4,0.4-0.4h7.3c0.2,0,0.4,0.2,0.4,0.4v1.4c0,0.2-0.2,0.5-0.6,1l-3.8,5.4c1.4,0,2.9,0.2,4.2,0.9
				c0.3,0.2,0.4,0.4,0.4,0.6v1.8c0,0.2-0.3,0.5-0.5,0.4c-2.3-1.2-5.3-1.3-7.8,0c-0.3,0.1-0.5-0.1-0.5-0.4V22c0-0.3,0-0.7,0.3-1.1
				l4.4-6.3h-3.8C45.6,14.6,45.4,14.4,45.4,14.2z"/>
		</g>
		<g>
			<defs>
				<rect id="SVGID_00000011010145274128288070000012298799960830510472_" x="3.8" y="11.8" width="72.2" height="21.8"/>
			</defs>
			<clipPath id="SVGID_00000139263931165623834350000015760374655105210274_">
				<use xlink:href="#SVGID_00000011010145274128288070000012298799960830510472_"  style="overflow:visible;"/>
			</clipPath>
			
				<path style="clip-path:url(#SVGID_00000139263931165623834350000015760374655105210274_);fill-rule:evenodd;clip-rule:evenodd;fill:#020203;" d="
				M18.7,24.4h-2.2c-0.2,0-0.4-0.2-0.4-0.4V12.6c0-0.2,0.2-0.4,0.4-0.4h2.1c0.2,0,0.4,0.2,0.4,0.4V14h0c0.5-1.5,1.6-2.1,2.9-2.1
				c1.4,0,2.3,0.7,2.9,2.1c0.5-1.5,1.8-2.1,3.1-2.1c0.9,0,2,0.4,2.6,1.2c0.7,1,0.6,2.4,0.6,3.6V24c0,0.2-0.2,0.4-0.4,0.4h-2.2
				c-0.2,0-0.4-0.2-0.4-0.4v-6.1c0-0.5,0-1.7-0.1-2.2c-0.2-0.8-0.7-1-1.3-1c-0.5,0-1.1,0.4-1.3,0.9c-0.2,0.6-0.2,1.5-0.2,2.2V24
				c0,0.2-0.2,0.4-0.4,0.4h-2.2c-0.2,0-0.4-0.2-0.4-0.4v-6.1c0-1.3,0.2-3.2-1.4-3.2c-1.6,0-1.5,1.8-1.5,3.2V24
				C19.1,24.2,18.9,24.4,18.7,24.4z"/>
		</g>
		<g>
			<defs>
				<rect id="SVGID_00000031166079606556561960000000156833119180418706_" x="3.8" y="11.8" width="72.2" height="21.8"/>
			</defs>
			<clipPath id="SVGID_00000166669374734536563970000016513840839663904419_">
				<use xlink:href="#SVGID_00000031166079606556561960000000156833119180418706_"  style="overflow:visible;"/>
			</clipPath>
			
				<path style="clip-path:url(#SVGID_00000166669374734536563970000016513840839663904419_);fill-rule:evenodd;clip-rule:evenodd;fill:#020203;" d="
				M59.9,11.9c3.3,0,5.1,2.8,5.1,6.5c0,3.5-2,6.3-5.1,6.3c-3.2,0-5-2.8-5-6.4C54.9,14.7,56.7,11.9,59.9,11.9z M60,14.2
				c-1.7,0-1.8,2.2-1.8,3.6c0,1.4,0,4.4,1.7,4.4c1.7,0,1.8-2.4,1.8-3.9c0-1,0-2.1-0.3-3C61.2,14.6,60.7,14.2,60,14.2z"/>
		</g>
		<g>
			<defs>
				<rect id="SVGID_00000143602442172569961640000009579855924322273204_" x="3.8" y="11.8" width="72.2" height="21.8"/>
			</defs>
			<clipPath id="SVGID_00000165222000636242703090000015028666051684964259_">
				<use xlink:href="#SVGID_00000143602442172569961640000009579855924322273204_"  style="overflow:visible;"/>
			</clipPath>
			
				<path style="clip-path:url(#SVGID_00000165222000636242703090000015028666051684964259_);fill-rule:evenodd;clip-rule:evenodd;fill:#020203;" d="
				M69.3,24.4h-2.2c-0.2,0-0.4-0.2-0.4-0.4V12.5c0-0.2,0.2-0.4,0.4-0.4h2.1c0.2,0,0.4,0.1,0.4,0.3v1.8h0c0.6-1.6,1.5-2.3,3-2.3
				c1,0,2,0.4,2.6,1.3c0.6,0.9,0.6,2.5,0.6,3.6V24c0,0.2-0.2,0.4-0.4,0.4h-2.2c-0.2,0-0.4-0.2-0.4-0.4v-6.2c0-1.2,0.2-3.1-1.4-3.1
				c-0.5,0-1,0.4-1.3,0.9c-0.3,0.7-0.3,1.4-0.3,2.2V24C69.8,24.2,69.6,24.4,69.3,24.4z"/>
		</g>
		<g>
			<defs>
				<rect id="SVGID_00000127736909177094806670000010069792654192643729_" x="3.8" y="11.8" width="72.2" height="21.8"/>
			</defs>
			<clipPath id="SVGID_00000168097524043511944560000016323243210709965720_">
				<use xlink:href="#SVGID_00000127736909177094806670000010069792654192643729_"  style="overflow:visible;"/>
			</clipPath>
			
				<path style="clip-path:url(#SVGID_00000168097524043511944560000016323243210709965720_);fill-rule:evenodd;clip-rule:evenodd;fill:#020203;" d="
				M39.6,18.9c0,0.9,0,1.6-0.4,2.4c-0.3,0.6-0.9,1-1.5,1c-0.9,0-1.4-0.7-1.4-1.6c0-1.9,1.7-2.2,3.3-2.2L39.6,18.9L39.6,18.9z
				 M41.8,24.4c-0.2,0.1-0.4,0.1-0.5,0.1c-0.7-0.6-0.9-0.9-1.3-1.5c-1.2,1.2-2.1,1.6-3.7,1.6c-1.9,0-3.3-1.2-3.3-3.5
				c0-1.8,1-3,2.4-3.7c1.2-0.5,2.9-0.6,4.2-0.8v-0.3c0-0.5,0-1.2-0.3-1.6c-0.3-0.4-0.8-0.6-1.2-0.6c-0.8,0-1.6,0.4-1.8,1.3
				c0,0.2-0.2,0.4-0.4,0.4l-2.2-0.2c-0.2,0-0.4-0.2-0.3-0.5c0.5-2.6,2.9-3.4,5-3.4c1.1,0,2.5,0.3,3.4,1.1c1.1,1,1,2.4,1,3.8v3.5
				c0,1,0.4,1.5,0.8,2.1c0.1,0.2,0.2,0.4,0,0.6C43.1,23.3,42.3,24,41.8,24.4L41.8,24.4z"/>
		</g>
		<g>
			<defs>
				<rect id="SVGID_00000045619201392596315680000013999974437459984775_" x="3.8" y="11.8" width="72.2" height="21.8"/>
			</defs>
			<clipPath id="SVGID_00000142158940092373367850000009469165747578199206_">
				<use xlink:href="#SVGID_00000045619201392596315680000013999974437459984775_"  style="overflow:visible;"/>
			</clipPath>
			
				<path style="clip-path:url(#SVGID_00000142158940092373367850000009469165747578199206_);fill-rule:evenodd;clip-rule:evenodd;fill:#020203;" d="
				M10.3,18.9c0,0.9,0,1.6-0.4,2.4c-0.3,0.6-0.9,1-1.5,1c-0.9,0-1.4-0.7-1.4-1.6c0-1.9,1.7-2.2,3.3-2.2L10.3,18.9L10.3,18.9z
				 M12.6,24.4c-0.2,0.1-0.4,0.1-0.5,0.1c-0.7-0.6-0.9-0.9-1.3-1.5c-1.2,1.2-2.1,1.6-3.7,1.6c-1.9,0-3.3-1.2-3.3-3.5
				c0-1.8,1-3,2.4-3.7c1.2-0.5,2.9-0.6,4.2-0.8v-0.3c0-0.5,0-1.2-0.3-1.6c-0.3-0.4-0.8-0.6-1.2-0.6c-0.8,0-1.6,0.4-1.8,1.3
				c0,0.2-0.2,0.4-0.4,0.4l-2.2-0.2c-0.2,0-0.4-0.2-0.3-0.5c0.5-2.6,2.9-3.4,5-3.4c1.1,0,2.5,0.3,3.4,1.1c1.1,1,1,2.4,1,3.8v3.5
				c0,1,0.4,1.5,0.8,2.1c0.1,0.2,0.2,0.4,0,0.6C13.8,23.3,13,24,12.6,24.4L12.6,24.4z"/>
		</g>
	</g>
</g>
</svg>
