<svg id="Layer_1" data-name="Layer 1" xmlns="http://www.w3.org/2000/svg" xmlns:xlink="http://www.w3.org/1999/xlink" viewBox="0 0 485.46 323"><defs><style>.cls-1{fill:none;}.cls-2{clip-path:url(#clip-path);}.cls-3{fill:#f6962c;}.cls-3,.cls-4,.cls-8{fill-rule:evenodd;}.cls-5,.cls-8{fill:#263f92;}.cls-6{fill:#ccc;}.cls-7{fill:#fff;}</style><clipPath id="clip-path" transform="translate(-60.96 -22)"><polygon class="cls-1" points="388.29 294.34 387.79 337.95 528.24 314.83 528.74 271.22 388.29 294.34 388.29 294.34"/></clipPath></defs><path d="M202.3,335.22a2.59,2.59,0,0,0-1.66,1.11,4.84,4.84,0,0,0-.86,2.25l0,0,4.87-.8v-.26a2.71,2.71,0,0,0-.59-1.85,1.82,1.82,0,0,0-1.79-.49m.19,9.69A3.77,3.77,0,0,1,199,344a4.93,4.93,0,0,1-1.26-3.71v-.44a6.64,6.64,0,0,1,1.38-4.09,5.1,5.1,0,0,1,3.2-2.07,3.44,3.44,0,0,1,3.22.8,4.62,4.62,0,0,1,1.05,3.36v1.23l-6.86,1.13,0,.06a3.85,3.85,0,0,0,.74,2.45,2.08,2.08,0,0,0,2.07.67,5.44,5.44,0,0,0,1.72-.57,5.07,5.07,0,0,0,1.28-1l.74,1.16a5.71,5.71,0,0,1-1.51,1.2,6.71,6.71,0,0,1-2.24.76" transform="translate(-60.96 -22)"/><path d="M208.15,342.5l1.59-.55.09-7.77-1.59,0,0-1.27,3.31-.55.12,1.6a4.86,4.86,0,0,1,1.34-1.56,4,4,0,0,1,1.82-.78,2.91,2.91,0,0,1,2.63.6,4,4,0,0,1,.9,3l-.06,5.32,1.59,0v1.27l-5.11.84V341.4l1.6-.54.06-5.28a2.63,2.63,0,0,0-.53-1.95,1.89,1.89,0,0,0-1.68-.32,3,3,0,0,0-1.47.65,3.87,3.87,0,0,0-1,1.29l-.07,6.39,1.59,0v1.26l-5.12.84,0-1.26Z" transform="translate(-60.96 -22)"/><path d="M234.76,334.16a5.28,5.28,0,0,0-.67-2.93,1.89,1.89,0,0,0-2.08-.85,2.93,2.93,0,0,0-1.41.62,3.8,3.8,0,0,0-1,1.2l-.06,5.3a2.12,2.12,0,0,0,.93.88,2.37,2.37,0,0,0,1.43.13,2.9,2.9,0,0,0,2.08-1.36,5.23,5.23,0,0,0,.73-2.78v-.21ZM226,343.72l1.59-.54.14-11.94-1.59,0,0-1.28,3.24-.53.16,1.3a4.54,4.54,0,0,1,1.3-1.35,4.21,4.21,0,0,1,1.76-.68,2.9,2.9,0,0,1,3,1.1,6.55,6.55,0,0,1,1,4.06v.21a7,7,0,0,1-1.14,4,4.41,4.41,0,0,1-3,1.94,3.85,3.85,0,0,1-1.71,0,2.65,2.65,0,0,1-1.25-.8l0,3.75,1.59,0,0,1.28L226,345l0-1.28Z" transform="translate(-60.96 -22)"/><path d="M242.2,336.71a4.15,4.15,0,0,0,2.9-2.08l0-1.79-2.05.34a3.4,3.4,0,0,0-1.88.87,2.06,2.06,0,0,0-.71,1.48,1.17,1.17,0,0,0,.42,1,1.75,1.75,0,0,0,1.3.16m3.08.94c-.06-.28-.1-.54-.13-.77s-.05-.46-.06-.69a6.25,6.25,0,0,1-1.41,1.45,4.2,4.2,0,0,1-1.79.78,3.07,3.07,0,0,1-2.5-.42,2.64,2.64,0,0,1-.83-2.19,3.31,3.31,0,0,1,1.24-2.59,6.82,6.82,0,0,1,3.35-1.39l2-.33,0-1.26a1.72,1.72,0,0,0-.57-1.42,2,2,0,0,0-1.63-.29,4.21,4.21,0,0,0-1.27.4,3,3,0,0,0-.9.67l-.22,1.18-1.49.25,0-2.11a6.83,6.83,0,0,1,1.76-1.24,7.79,7.79,0,0,1,2.23-.73,3.88,3.88,0,0,1,2.9.47,2.82,2.82,0,0,1,1.08,2.52l-.06,5.24v.41c0,.13,0,.26,0,.4l.78,0v1.27l-2.52.41Z" transform="translate(-60.96 -22)"/><path d="M249.51,327.37V326.1l3.32-.55.16,1.55a4.81,4.81,0,0,1,1.13-1.49,2.92,2.92,0,0,1,1.51-.72,2.32,2.32,0,0,1,.46,0,2,2,0,0,1,.37,0l-.27,1.88-1.1.12a2.6,2.6,0,0,0-1.28.58,3,3,0,0,0-.81,1.16l-.08,6.25,1.59,0v1.26l-5.11.84v-1.26l1.6-.55.09-7.77-1.59,0Z" transform="translate(-60.96 -22)"/><path d="M261.19,321.56l0,2.62,2-.33,0,1.47-2,.33-.07,6.6a1.32,1.32,0,0,0,.29,1,1,1,0,0,0,.81.18c.17,0,.36-.08.58-.14l.53-.19.25,1.32a3.14,3.14,0,0,1-.81.43,5.11,5.11,0,0,1-1.05.28,2.13,2.13,0,0,1-1.86-.42,2.77,2.77,0,0,1-.67-2.17l.08-6.6-1.67.27v-1.47l1.67-.27,0-2.63,1.93-.31Z" transform="translate(-60.96 -22)"/><path d="M269.64,324.14a2.59,2.59,0,0,0-1.66,1.11,4.8,4.8,0,0,0-.86,2.24l0,.05,4.87-.8v-.26a2.64,2.64,0,0,0-.58-1.85,1.82,1.82,0,0,0-1.79-.49m.18,9.68a3.78,3.78,0,0,1-3.49-.93,5,5,0,0,1-1.26-3.71v-.45a6.62,6.62,0,0,1,1.39-4.08,5,5,0,0,1,3.2-2.07,3.39,3.39,0,0,1,3.21.8,4.61,4.61,0,0,1,1.06,3.35V328l-6.86,1.13,0,0a3.88,3.88,0,0,0,.74,2.46,2.05,2.05,0,0,0,2.07.66,5.2,5.2,0,0,0,1.72-.56,5.31,5.31,0,0,0,1.28-1l.74,1.16a5.71,5.71,0,0,1-1.51,1.2,6.48,6.48,0,0,1-2.25.75" transform="translate(-60.96 -22)"/><path d="M275.49,331.42l1.59-.55.09-7.77-1.59,0,0-1.27,3.31-.55.12,1.59a4.93,4.93,0,0,1,1.34-1.55,4,4,0,0,1,1.81-.78,2.93,2.93,0,0,1,2.64.6,4,4,0,0,1,.9,3l-.06,5.32,1.59,0v1.27l-5.11.84v-1.27l1.6-.54.06-5.28a2.63,2.63,0,0,0-.53-1.95,1.93,1.93,0,0,0-1.68-.33,3.21,3.21,0,0,0-1.48.66,3.75,3.75,0,0,0-1,1.29l-.07,6.38,1.59,0,0,1.27-5.11.84,0-1.26Z" transform="translate(-60.96 -22)"/><path d="M292.45,328.44a3.86,3.86,0,0,0,1.75-.76,3.71,3.71,0,0,0,1.15-1.32l0-1.79-2.05.34a3.4,3.4,0,0,0-1.88.87,2,2,0,0,0-.7,1.48,1.15,1.15,0,0,0,.41,1,1.75,1.75,0,0,0,1.3.16m3.08.94c-.06-.29-.1-.54-.13-.77s0-.46-.06-.69a6.05,6.05,0,0,1-1.41,1.45,4.21,4.21,0,0,1-1.78.78,3.06,3.06,0,0,1-2.5-.42,2.61,2.61,0,0,1-.84-2.19,3.29,3.29,0,0,1,1.25-2.59,6.74,6.74,0,0,1,3.34-1.39l2-.33,0-1.26a1.66,1.66,0,0,0-.57-1.42,2,2,0,0,0-1.63-.29,4.3,4.3,0,0,0-1.27.4,3,3,0,0,0-.9.67l-.22,1.18-1.48.25,0-2.11a6.83,6.83,0,0,1,1.76-1.24,7.89,7.89,0,0,1,2.23-.73,3.87,3.87,0,0,1,2.9.47,2.78,2.78,0,0,1,1.08,2.52l-.06,5.24v.41c0,.13,0,.26,0,.4l.78,0V329l-2.52.41Z" transform="translate(-60.96 -22)"/><path d="M299.76,319.1l0-1.28,3.31-.54.16,1.55a5,5,0,0,1,1.13-1.49,3,3,0,0,1,1.51-.72,2.42,2.42,0,0,1,.47,0,1.9,1.9,0,0,1,.36,0l-.27,1.88-1.1.12a2.65,2.65,0,0,0-1.28.58,3,3,0,0,0-.81,1.16l-.07,6.24,1.58,0v1.27l-5.11.84,0-1.27,1.59-.54.09-7.77-1.59,0Z" transform="translate(-60.96 -22)"/><path d="M311.6,313.1l-1.93.32,0-2,1.92-.32,0,2Zm-3.66,13,1.6-.54.08-7.77-1.58,0v-1.28l3.52-.58-.11,9.33,1.59,0v1.27l-5.11.84v-1.27Z" transform="translate(-60.96 -22)"/><path d="M318.32,324.18a4.15,4.15,0,0,0,2.9-2.08l0-1.79-2.05.34a3.4,3.4,0,0,0-1.88.87,2.06,2.06,0,0,0-.71,1.48,1.17,1.17,0,0,0,.42,1,1.7,1.7,0,0,0,1.3.16m3.08.94c-.06-.28-.1-.54-.13-.77s0-.46-.06-.69a6.25,6.25,0,0,1-1.41,1.45,4,4,0,0,1-1.79.78,3.07,3.07,0,0,1-2.5-.42,2.63,2.63,0,0,1-.83-2.19,3.33,3.33,0,0,1,1.24-2.59,6.82,6.82,0,0,1,3.35-1.39l2-.32,0-1.27a1.72,1.72,0,0,0-.57-1.42,2,2,0,0,0-1.63-.29,4.51,4.51,0,0,0-1.27.4,3.2,3.2,0,0,0-.9.67l-.22,1.18-1.49.25,0-2.11a6.83,6.83,0,0,1,1.76-1.24,7.48,7.48,0,0,1,2.23-.72,3.83,3.83,0,0,1,2.9.46,2.82,2.82,0,0,1,1.08,2.52l-.06,5.24v.41c0,.13,0,.27,0,.4l.78,0v1.27l-2.52.41Z" transform="translate(-60.96 -22)"/><path d="M329,310.39l0,2.62,2-.32,0,1.46-2,.33-.08,6.61a1.28,1.28,0,0,0,.3,1,.94.94,0,0,0,.81.18,5.84,5.84,0,0,0,.57-.14l.53-.18.25,1.31a3.05,3.05,0,0,1-.8.43,6.21,6.21,0,0,1-1.06.29,2.13,2.13,0,0,1-1.86-.42,2.79,2.79,0,0,1-.66-2.18l.07-6.6-1.67.27,0-1.46,1.67-.28,0-2.62,1.92-.32Z" transform="translate(-60.96 -22)"/><path d="M341.64,320.35a4,4,0,0,0,1.75-.76,3.83,3.83,0,0,0,1.15-1.33l0-1.78-2.05.33a3.4,3.4,0,0,0-1.88.87,2.09,2.09,0,0,0-.71,1.48,1.17,1.17,0,0,0,.42,1,1.73,1.73,0,0,0,1.3.17m3.08.94c-.06-.29-.1-.55-.13-.78s0-.46-.06-.69a6.06,6.06,0,0,1-1.41,1.45,4,4,0,0,1-1.79.78,3.11,3.11,0,0,1-2.5-.41,2.65,2.65,0,0,1-.83-2.2,3.34,3.34,0,0,1,1.24-2.59,6.91,6.91,0,0,1,3.35-1.39l2-.32,0-1.27a1.73,1.73,0,0,0-.57-1.42,2,2,0,0,0-1.63-.28,4.21,4.21,0,0,0-1.27.4,2.86,2.86,0,0,0-.9.67l-.22,1.18-1.49.24,0-2.11a6.83,6.83,0,0,1,1.76-1.24,7.48,7.48,0,0,1,2.23-.72,3.88,3.88,0,0,1,2.9.46,2.83,2.83,0,0,1,1.08,2.53l-.06,5.23v.41c0,.14,0,.27,0,.4l.78,0v1.27l-2.52.42Z" transform="translate(-60.96 -22)"/><polygon points="291.61 288.41 290.33 288.82 292.44 294.65 292.61 295.41 292.67 295.4 292.86 294.58 295.04 288.05 293.77 288.05 293.78 286.78 297.86 286.11 297.85 287.38 296.98 287.68 293.32 297.71 291.87 297.95 288.39 289.09 287.52 289.08 287.54 287.81 291.62 287.13 291.61 288.41 291.61 288.41"/><path d="M364.64,308.5a2.61,2.61,0,0,0-1.66,1.11,4.84,4.84,0,0,0-.86,2.25l0,.05,4.87-.81v-.26a2.66,2.66,0,0,0-.59-1.85,1.83,1.83,0,0,0-1.79-.49m.19,9.69a3.77,3.77,0,0,1-3.5-.94,4.93,4.93,0,0,1-1.26-3.71v-.44a6.59,6.59,0,0,1,1.39-4.09,5,5,0,0,1,3.19-2.06,3.41,3.41,0,0,1,3.22.79,4.62,4.62,0,0,1,1.05,3.36v1.23l-6.86,1.13,0,.06a3.79,3.79,0,0,0,.75,2.45,2.05,2.05,0,0,0,2.06.67,5.36,5.36,0,0,0,1.72-.57,5.12,5.12,0,0,0,1.29-1l.73,1.16a5.71,5.71,0,0,1-1.51,1.2,6.71,6.71,0,0,1-2.24.76" transform="translate(-60.96 -22)"/><path d="M375.52,314.88a3,3,0,0,0,1.69-.89,2.27,2.27,0,0,0,.75-1.61l1.73-.28,0,0a3.72,3.72,0,0,1-1.25,2.7,5.3,5.3,0,0,1-3,1.58,3.6,3.6,0,0,1-3.5-1,5.25,5.25,0,0,1-1.17-3.69v-.42a7,7,0,0,1,1.27-4.08,5.12,5.12,0,0,1,3.53-2.13,5.39,5.39,0,0,1,2.28.06,3.59,3.59,0,0,1,1.66.91l.06,2.39-1.53.26-.4-1.64a2.05,2.05,0,0,0-.88-.41,3,3,0,0,0-1.2,0,2.85,2.85,0,0,0-2.18,1.47,6.07,6.07,0,0,0-.68,2.86v.42a4.82,4.82,0,0,0,.62,2.68,1.92,1.92,0,0,0,2.15.75" transform="translate(-60.96 -22)"/><g class="cls-2"><path class="cls-3" d="M475,314.13c-8.23,7.54-20.09,12.77-30.27,14.45-14.28,2.35-27.06-1-36.69-8.4a.76.76,0,0,1,.85-1.26c10.42,4.55,23.35,6.2,36.75,4a81.92,81.92,0,0,0,28.19-10.55c1.39-.82,2.53.52,1.17,1.77" transform="translate(-60.96 -22)"/><path class="cls-3" d="M478.43,309.58c-1-1.2-6.89.49-9.53,1.24-.79.23-.91-.46-.18-1.1,4.7-4.14,12.34-4.43,13.22-3.44s-.34,9.07-4.76,13.55c-.68.69-1.31.49-1-.32,1-2.7,3.28-8.72,2.26-9.93" transform="translate(-60.96 -22)"/><path class="cls-4" d="M469.37,285.82l0-3.28a1,1,0,0,1,.82-1l14.28-2.35a.65.65,0,0,1,.81.69l0,2.81a5.67,5.67,0,0,1-1.1,2.24l-7.52,12.09a14.34,14.34,0,0,1,8.13.46,1.21,1.21,0,0,1,.74,1.15l0,3.5c0,.48-.52,1.12-1.06.92-4.37-1.64-10.2-.94-15.09,2.51a.65.65,0,0,1-1-.59l0-3.32a4.56,4.56,0,0,1,.56-2.34l8.71-14.07-7.46,1.23a.66.66,0,0,1-.82-.69" transform="translate(-60.96 -22)"/><path class="cls-4" d="M417.05,314.87l-4.35.72a.68.68,0,0,1-.77-.63L412.2,292a1,1,0,0,1,.85-1l4-.67a.69.69,0,0,1,.79.64l0,3h.08c1.09-3.08,3.09-4.76,5.77-5.19s4.4.62,5.59,3.32a7.72,7.72,0,0,1,6.05-5.24,5.14,5.14,0,0,1,5,1.68c1.35,1.71,1,4.55,1,7l-.17,14.48a1,1,0,0,1-.84,1l-4.34.72a.68.68,0,0,1-.78-.7l.14-12.16a30.35,30.35,0,0,0-.07-4.28c-.31-1.49-1.28-1.77-2.53-1.56a3.63,3.63,0,0,0-2.62,2.31,14.81,14.81,0,0,0-.45,4.46L429.54,312a1.05,1.05,0,0,1-.85,1l-4.34.71a.67.67,0,0,1-.77-.69l.13-12.17c0-2.56.48-6.39-2.6-5.88s-3,4.16-3.07,6.82l-.15,12.16a1,1,0,0,1-.84,1" transform="translate(-60.96 -22)"/><path class="cls-4" d="M497.62,281.32c-3.21.53-3.46,5.05-3.49,7.85s-.14,8.8,3.27,8.24S501,292,501,289.05a20.58,20.58,0,0,0-.58-6,2.24,2.24,0,0,0-2.81-1.76m0-4.67c6.45-1.07,9.87,4.06,9.79,11.3-.08,7-4,13.19-10.08,14.19-6.33,1-9.71-4.09-9.63-11.19s3.64-13.27,9.92-14.3" transform="translate(-60.96 -22)"/><path class="cls-4" d="M515.64,298.64l-4.32.72a.67.67,0,0,1-.77-.7l.25-23a1,1,0,0,1,.84-.89l4-.66a.67.67,0,0,1,.77.51l0,3.51h.08c1.25-3.34,3-5.12,6-5.61a4.73,4.73,0,0,1,5,1.87c1.12,1.65,1.08,4.74,1.06,7l-.17,14.44a1.05,1.05,0,0,1-.84.86l-4.35.71a.67.67,0,0,1-.77-.59l.14-12.46c0-2.51.36-6.23-2.64-5.73a3.57,3.57,0,0,0-2.54,2.24,11.5,11.5,0,0,0-.74,4.46l-.14,12.36a1,1,0,0,1-.86,1" transform="translate(-60.96 -22)"/><path class="cls-4" d="M462.14,307.39a1,1,0,0,1-1,.28,8.51,8.51,0,0,1-2.46-2.57c-2.41,2.89-4.11,3.92-7.2,4.43-3.65.6-6.47-1.26-6.42-5.9a9.38,9.38,0,0,1,4.72-8.07c2.37-1.45,5.66-2.19,8.18-2.89v-.59c0-1.06.11-2.33-.49-3.15a2.42,2.42,0,0,0-2.43-.76,4.15,4.15,0,0,0-3.52,3.26,1.2,1.2,0,0,1-.76.95l-4.21.22a.65.65,0,0,1-.64-.83c1-5.42,5.66-7.76,9.8-8.44,2.11-.35,4.87-.23,6.52,1.15,2.09,1.68,1.85,4.42,1.82,7.38l-.08,7a5.17,5.17,0,0,0,1.59,3.88.86.86,0,0,1,0,1.18c-.89.92-2.49,2.59-3.36,3.52Zm-4.26-10.18a9.71,9.71,0,0,1-.87,4.88,4.43,4.43,0,0,1-3,2.53c-1.66.27-2.62-.87-2.6-2.81,0-3.81,3.37-5.05,6.51-5.56v1Z" transform="translate(-60.96 -22)"/><path class="cls-4" d="M405.18,316.77a1,1,0,0,1-1,.27,8.36,8.36,0,0,1-2.45-2.57c-2.41,2.89-4.11,3.92-7.2,4.43-3.66.6-6.48-1.25-6.42-5.9a9.39,9.39,0,0,1,4.71-8.07c2.37-1.45,5.67-2.19,8.19-2.89v-.58c0-1.07.1-2.34-.5-3.16a2.45,2.45,0,0,0-2.42-.76,4.15,4.15,0,0,0-3.52,3.26,1.18,1.18,0,0,1-.77.95l-4.2.22a.64.64,0,0,1-.64-.82c1-5.42,5.66-7.77,9.79-8.45,2.12-.35,4.87-.22,6.52,1.15,2.09,1.68,1.86,4.43,1.82,7.38l-.08,7a5.17,5.17,0,0,0,1.6,3.88.87.87,0,0,1,0,1.19c-.9.91-2.49,2.58-3.37,3.52Zm-4.25-10.18a9.8,9.8,0,0,1-.87,4.87,4.43,4.43,0,0,1-3,2.53c-1.67.28-2.63-.87-2.61-2.81.05-3.8,3.37-5,6.52-5.56v1Z" transform="translate(-60.96 -22)"/></g><polygon class="cls-5" points="420.98 183.43 102.39 235.79 67.96 214.34 386.02 162.41 420.98 183.43 420.98 183.43"/><polygon class="cls-6" points="102.12 283.03 67.67 261.95 68.36 214.64 102.39 235.79 102.12 283.03 102.12 283.03"/><polygon points="420.93 230.32 102.12 283.03 102.39 235.79 421.19 183.08 420.93 230.32 420.93 230.32"/><polygon class="cls-6" points="44.27 227.57 0 201.25 0.87 141.66 44.9 168.12 44.27 227.57 44.27 227.57"/><polygon class="cls-5" points="485.46 95.34 44.9 168.12 0.87 141.65 440.79 69.89 485.46 95.34 485.46 95.34"/><path class="cls-7" d="M209.69,260.49q5-.86,7.93,1.31a7.52,7.52,0,0,1,2.87,6.48,10.68,10.68,0,0,1-3,7.47,13.67,13.67,0,0,1-8,4l-5,.85,0,6.69,3.14.09,0,3.63-12.14,2.07,0-3.63,3.13-1.15.12-21.67-3.12-.09,0-3.65,13.95-2.38Zm-5,15.42,5-.84a5.77,5.77,0,0,0,3.72-2,5.88,5.88,0,0,0,1.28-3.73,4.44,4.44,0,0,0-1.24-3.39,4.09,4.09,0,0,0-3.7-.78l-5,.84-.05,9.91Z" transform="translate(-60.96 -22)"/><path class="cls-7" d="M222.45,277.06a14.22,14.22,0,0,1,2.78-8.68,11.42,11.42,0,0,1,7.56-4.49q4.83-.83,7.54,1.9c1.8,1.82,2.7,4.41,2.68,7.77V274a14.21,14.21,0,0,1-2.78,8.71,11.49,11.49,0,0,1-7.54,4.47q-4.84.82-7.56-1.89c-1.8-1.82-2.7-4.41-2.68-7.78v-.44Zm5.88-.56a9,9,0,0,0,1,4.74,3,3,0,0,0,3.37,1.28,4.42,4.42,0,0,0,3.34-2.43,11.12,11.12,0,0,0,1.09-5.1v-.43a8.82,8.82,0,0,0-1-4.69,3,3,0,0,0-3.35-1.32,4.39,4.39,0,0,0-3.35,2.46,11.05,11.05,0,0,0-1.08,5.05v.44Z" transform="translate(-60.96 -22)"/><path class="cls-7" d="M260.76,279.11a9.72,9.72,0,0,1-2.6,2.87,8.46,8.46,0,0,1-3.52,1.45q-3.45.58-5.38-1.36t-1.92-6.72l.06-9.27-2.39-.22,0-3.64,8.27-1.42-.08,13.59a5.31,5.31,0,0,0,.78,3.38,2.35,2.35,0,0,0,2.36.66,6.58,6.58,0,0,0,2.41-.88,5.35,5.35,0,0,0,1.66-1.62l.07-12.09-2.57-.18,0-3.65,8.46-1.44-.11,18.19,2.63.17,0,3.63-7.79,1.32-.36-2.77Z" transform="translate(-60.96 -22)"/><path class="cls-7" d="M271.7,276.46l2.82-1.11.08-13.91-3.12-.09,0-3.65,8.6-1.46.24,3.23a8.92,8.92,0,0,1,2-3.05,5.25,5.25,0,0,1,2.8-1.46,7.59,7.59,0,0,1,1-.09,5.4,5.4,0,0,1,.85,0l-.65,5.62-2.42.35a4.59,4.59,0,0,0-2.13.89,4.2,4.2,0,0,0-1.3,1.69l-.06,10.9,2.81.15,0,3.62-11.51,2,0-3.63Z" transform="translate(-60.96 -22)"/><polygon class="cls-7" points="237.28 224.89 237.3 221.24 246.32 219.7 246.16 247.8 248.99 247.94 248.97 251.56 237.42 253.53 237.44 249.91 240.28 248.8 240.42 224.97 237.28 224.89 237.28 224.89"/><path class="cls-7" d="M322.28,271.9q-4.71.8-7.51-1.83T312,262.65v-.83a14.53,14.53,0,0,1,2.71-8.69,10.75,10.75,0,0,1,7.18-4.43c2.94-.5,5.21,0,6.83,1.57s2.41,3.88,2.39,7l0,3.29-13,2.22,0,.13a5,5,0,0,0,1.42,3.41,3.82,3.82,0,0,0,3.46.83,12.39,12.39,0,0,0,3.24-.95,18.08,18.08,0,0,0,2.83-1.76l1.57,3.46a14.34,14.34,0,0,1-3.51,2.44,16,16,0,0,1-4.78,1.57Zm-.42-18.54a3.75,3.75,0,0,0-2.58,1.73,8,8,0,0,0-1.19,3.58l.06.09,7.21-1.23V257a4.31,4.31,0,0,0-.86-2.93,2.69,2.69,0,0,0-2.64-.7Z" transform="translate(-60.96 -22)"/><path class="cls-7" d="M351.68,251.74l-3.95.67-.6-2.69a4.31,4.31,0,0,0-1.52-.57,5.71,5.71,0,0,0-2,0,4.63,4.63,0,0,0-2.46,1.14,2.68,2.68,0,0,0-.92,1.95,1.71,1.71,0,0,0,.86,1.54,8,8,0,0,0,3.46.6,11.85,11.85,0,0,1,6,1.41,4.51,4.51,0,0,1,1.93,4.1,7.19,7.19,0,0,1-2.56,5.37,12.66,12.66,0,0,1-6.66,3.06,13.29,13.29,0,0,1-4.62,0,9.64,9.64,0,0,1-3.72-1.53l0-5,4.11-.7.79,2.78a2.68,2.68,0,0,0,1.42.43,7.65,7.65,0,0,0,1.89-.1,5.39,5.39,0,0,0,2.73-1.13,2.55,2.55,0,0,0,.95-2,1.72,1.72,0,0,0-.94-1.56,8.07,8.07,0,0,0-3.47-.69,11.81,11.81,0,0,1-5.8-1.41,4.35,4.35,0,0,1-1.93-4,7.6,7.6,0,0,1,2.28-5.24,11,11,0,0,1,6.43-3.14,15.27,15.27,0,0,1,4.8-.11,8.31,8.31,0,0,1,3.54,1.19l0,5.57Z" transform="translate(-60.96 -22)"/><path class="cls-7" d="M379.14,231.61c3.35-.57,6-.14,7.93,1.31a7.53,7.53,0,0,1,2.86,6.48,10.6,10.6,0,0,1-2.95,7.46,13.59,13.59,0,0,1-8,4l-4.95.84,0,6.7,3.14.09,0,3.63L365,264.18l0-3.63,3.12-1.16.12-21.66-3.11-.1,0-3.64,13.95-2.38Zm-5,15.42,5-.85a5.78,5.78,0,0,0,3.72-2,5.9,5.9,0,0,0,1.28-3.73,4.48,4.48,0,0,0-1.24-3.38,4.11,4.11,0,0,0-3.71-.79l-4.95.85L374.1,247Z" transform="translate(-60.96 -22)"/><polygon class="cls-7" points="359.14 210.48 359.02 210.48 351.04 234.17 347.1 234.84 339.41 213.9 339.29 213.94 339.78 227.1 339.75 231.84 342.89 231.93 342.87 235.56 330.73 237.63 330.75 234 333.87 232.85 334 211.18 330.88 211.09 330.9 207.44 341.69 205.6 349.03 226.57 349.15 226.56 356.81 203.02 367.64 201.18 367.62 204.83 364.47 205.98 364.35 227.65 367.49 227.74 367.47 231.37 355.33 233.44 355.35 229.81 358.47 228.65 358.5 223.91 359.14 210.48 359.14 210.48"/><polygon class="cls-7" points="388.56 214.51 378.64 216.21 378.59 224.83 388.05 223.22 388.33 219.57 392.8 218.8 392.75 227.06 369.56 231.01 369.58 227.38 372.71 226.23 372.83 204.56 369.72 204.47 369.74 200.82 392.89 196.87 392.84 205.15 388.33 205.91 388.09 202.35 378.71 203.95 378.67 211.54 388.59 209.85 388.56 214.51 388.56 214.51"/><polygon points="485.12 154.84 44.27 227.57 44.61 168.07 485.46 95.34 485.12 154.84 485.12 154.84"/><polygon class="cls-5" points="201.86 71.89 201.88 67.86 205.32 66.61 205.46 42.66 202.02 42.58 202.04 38.56 215.45 36.27 215.43 40.3 211.93 41.55 211.79 65.03 220.95 63.47 221.26 59.22 226.22 58.38 226.17 67.68 201.86 71.83 201.86 71.89 201.86 71.89"/><path class="cls-5" d="M298.23,83.35a6.73,6.73,0,0,0,2.69-1.12,6.46,6.46,0,0,0,1.87-1.93l0-3.79-3.33.57a5.24,5.24,0,0,0-3.15,1.55,3.78,3.78,0,0,0-1.06,2.59,2.14,2.14,0,0,0,.8,1.84,3,3,0,0,0,2.15.29m5.63,3.54a10.66,10.66,0,0,1-.46-1.18,11.07,11.07,0,0,1-.28-1.27,11.12,11.12,0,0,1-2.81,2.7,9.75,9.75,0,0,1-3.8,1.48c-2.33.4-4.25.07-5.58-1a6,6,0,0,1-2.07-5,7.54,7.54,0,0,1,2.77-5.87,16.36,16.36,0,0,1,8-3.29l3.33-.56v-2.4a3.19,3.19,0,0,0-1-2.6,3.53,3.53,0,0,0-3-.45,7.42,7.42,0,0,0-2,.58,6.15,6.15,0,0,0-1.4.84l-.43,2.71-4.89.83,0-5.52a23.7,23.7,0,0,1,4.09-2.8,16.61,16.61,0,0,1,5-1.69,10.12,10.12,0,0,1,7.28,1c1.85,1.19,2.77,3.19,2.76,6l-.07,11.35c0,.36.06.66.05,1l2,0,0,4-7.58,1.29Z" transform="translate(-60.96 -22)"/><path class="cls-5" d="M332.35,64.76l5.49-.94a6.31,6.31,0,0,0,4.08-2.19,6.47,6.47,0,0,0,1.43-4.15A4.81,4.81,0,0,0,342,53.76a4.55,4.55,0,0,0-4.07-.87l-5.48.94-.07,10.93Zm5.52-17c3.73-.64,6.64-.17,8.73,1.45s3.18,4,3.16,7.14a11.65,11.65,0,0,1-3.25,8.23,15.21,15.21,0,0,1-8.76,4.38l-5.48.93,0,7.39,3.49.06,0,4-13.41,2.29,0-4,3.45-1.25.13-23.84-3.43-.07,0-4,15.39-2.62v-.06Z" transform="translate(-60.96 -22)"/><polygon class="cls-5" points="289.31 25.3 289.33 21.28 299.31 19.58 299.13 50.63 302.27 50.75 302.25 54.77 289.48 56.95 289.51 52.93 292.66 51.73 292.81 25.37 289.31 25.3 289.31 25.3"/><path class="cls-5" d="M373.91,70.45a7,7,0,0,0,4.56-3l0-3.79-3.32.57A5.33,5.33,0,0,0,372,65.74,3.78,3.78,0,0,0,371,68.32a2.14,2.14,0,0,0,.8,1.84,2.8,2.8,0,0,0,2.16.29M379.48,74a9,9,0,0,1-.46-1.18,9.33,9.33,0,0,1-.29-1.27,11,11,0,0,1-2.81,2.7,9.94,9.94,0,0,1-3.79,1.49c-2.33.39-4.25.06-5.59-1a6,6,0,0,1-2.07-5,7.55,7.55,0,0,1,2.78-5.87,16.32,16.32,0,0,1,8-3.29l3.33-.56v-2.4a3.22,3.22,0,0,0-1-2.6,3.53,3.53,0,0,0-3-.45,7.5,7.5,0,0,0-2,.58,6.54,6.54,0,0,0-1.4.84l-.42,2.71-4.9.83,0-5.52a24.09,24.09,0,0,1,4.09-2.8,17,17,0,0,1,5-1.69,10.1,10.1,0,0,1,7.27,1c1.86,1.19,2.78,3.19,2.76,6l-.06,11.35c0,.36.05.66.05,1l2,0,0,4L379.48,74Z" transform="translate(-60.96 -22)"/><path class="cls-5" d="M396,40.34l0,6.07,4.2-.72,0,4.69-4.19.71L395.9,63.7a2.53,2.53,0,0,0,.57,2A1.81,1.81,0,0,0,398,66a7.34,7.34,0,0,0,1.17-.26l1.11-.37.55,4.71a15.94,15.94,0,0,1-2.16.9,14.41,14.41,0,0,1-2.33.58,6,6,0,0,1-5.18-1c-1.21-1-1.78-3-1.77-5.69l.08-12.61-3.57.6,0-4.68,3.56-.61,0-6.06L396,40.34Z" transform="translate(-60.96 -22)"/><path class="cls-5" d="M412.68,48.24a4.11,4.11,0,0,0-2.86,1.93,8.88,8.88,0,0,0-1.31,3.94l.06.11,8-1.36v-.6a4.75,4.75,0,0,0-1-3.25,3,3,0,0,0-2.91-.77m.47,20.5c-3.5.6-6.23-.08-8.32-2s-3.06-4.7-3-8.18v-.9a15.88,15.88,0,0,1,3-9.58,11.91,11.91,0,0,1,7.95-4.89c3.26-.56,5.76,0,7.56,1.71S423,49.19,423,52.61l0,3.66L408.6,58.72l-.06.13a5.5,5.5,0,0,0,1.56,3.76,4.15,4.15,0,0,0,3.84.9,13.1,13.1,0,0,0,3.55-1,23,23,0,0,0,3.1-1.91l1.73,3.85a16.56,16.56,0,0,1-3.86,2.7,23.66,23.66,0,0,1-5.31,1.62" transform="translate(-60.96 -22)"/><path class="cls-5" d="M425.13,62.2l3.15-1.2.09-15.43-3.56.61,0-4.69,3.56-.6,0-2.77a9.89,9.89,0,0,1,2.37-6.82,11,11,0,0,1,6.6-3.4,16.94,16.94,0,0,1,1.69-.17,10.63,10.63,0,0,1,1.86,0l-.61,5.08h-1.05a6.84,6.84,0,0,0-1.16.14,3.67,3.67,0,0,0-2.4,1.31,4.32,4.32,0,0,0-.83,2.72l0,2.76,4.78-.81,0,4.68-4.78.82-.09,15.37,3.15.12,0,4L425.1,66.16l0-4Z" transform="translate(-60.96 -22)"/><path class="cls-5" d="M447.09,50.36a10.09,10.09,0,0,0,1.14,5.26A3.28,3.28,0,0,0,452,57a4.8,4.8,0,0,0,3.68-2.67,12.5,12.5,0,0,0,1.2-5.6v-.48a10.12,10.12,0,0,0-1.14-5.21A3.31,3.31,0,0,0,452,41.61a4.87,4.87,0,0,0-3.69,2.72,12.55,12.55,0,0,0-1.19,5.61v.42Zm-6.46.56a15.42,15.42,0,0,1,3.08-9.59,12.72,12.72,0,0,1,8.35-5c3.56-.61,6.35.12,8.32,2.12s3,4.89,3,8.55v.49a15.55,15.55,0,0,1-3.09,9.64A12.6,12.6,0,0,1,452,62.12c-3.56.61-6.35-.11-8.38-2.11s-3-4.89-3-8.61v-.48Z" transform="translate(-60.96 -22)"/><path class="cls-5" d="M465.47,55.33l3.09-1.19.09-15.38-3.44-.07,0-4,9.5-1.62L475,36.6a10.61,10.61,0,0,1,2.18-3.37,5.69,5.69,0,0,1,3.09-1.61,6.26,6.26,0,0,1,1.05-.12c.35,0,.7,0,.93,0l-.67,6.18-2.69.4a4.68,4.68,0,0,0-2.33,1A4.1,4.1,0,0,0,475.16,41L475.09,53l3.09.14,0,4-12.7,2.17,0-4Z" transform="translate(-60.96 -22)"/><path class="cls-5" d="M484.21,35.39l0-4,9.51-1.62L494,33a10.46,10.46,0,0,1,2.93-3.26,9.3,9.3,0,0,1,4-1.64,6.52,6.52,0,0,1,4,.4,5.09,5.09,0,0,1,2.49,2.76,11.06,11.06,0,0,1,2.93-3.62,9.26,9.26,0,0,1,4.2-1.86q3.59-.62,5.58,1.57c1.39,1.44,2,3.91,2,7.34L522.07,45l3.15.12,0,4-12.42,2.12,0-4,2.8-1.14.06-10.39c0-1.86-.27-3.13-.85-3.75a2.72,2.72,0,0,0-2.62-.64,5.37,5.37,0,0,0-4,3l-.08,12.91,2.62.21,0,4-11.72,2,0-4,2.63-1.11.06-10.27c0-1.86-.28-3.07-.85-3.75a2.66,2.66,0,0,0-2.68-.68,5.27,5.27,0,0,0-2.28.93,5.93,5.93,0,0,0-1.63,1.72l-.08,13.39,2.79.18,0,4-12.48,2.13,0-4,3.15-1.19.09-15.31-3.5-.13Z" transform="translate(-60.96 -22)"/><path class="cls-5" d="M535.8,27.26a4.11,4.11,0,0,0-2.86,1.93,8.71,8.71,0,0,0-1.3,3.94l.05.11,8-1.37v-.59a4.77,4.77,0,0,0-1-3.26,3,3,0,0,0-2.91-.76m.47,20.5c-3.5.59-6.23-.08-8.32-2s-3.06-4.69-3-8.18v-.9a15.84,15.84,0,0,1,3-9.57,11.92,11.92,0,0,1,7.95-4.9c3.27-.55,5.76,0,7.56,1.71s2.66,4.29,2.64,7.71l0,3.67-14.34,2.44-.06.13a5.45,5.45,0,0,0,1.55,3.76,4.13,4.13,0,0,0,3.84.9,13,13,0,0,0,3.56-1,23.57,23.57,0,0,0,3.09-1.91l1.73,3.84a16.56,16.56,0,0,1-3.86,2.7,23.67,23.67,0,0,1-5.31,1.63" transform="translate(-60.96 -22)"/><path class="cls-8" d="M171,75.57a1.63,1.63,0,0,1,2,1.69,2.51,2.51,0,0,1-2,2.36,1.64,1.64,0,0,1-2-1.69,2.51,2.51,0,0,1,2-2.36" transform="translate(-60.96 -22)"/><path class="cls-5" d="M177,78.58l.3,0A2.51,2.51,0,0,0,179,75.92a1.66,1.66,0,0,0-2.25-1.33,2.5,2.5,0,0,0-1.68,2.61A1.63,1.63,0,0,0,177,78.58" transform="translate(-60.96 -22)"/><path class="cls-5" d="M182.73,77.51a1.29,1.29,0,0,0,.44,0,2.1,2.1,0,0,0,1-.48,2.86,2.86,0,0,0,.89-1.41,1.9,1.9,0,0,0-.24-1.47,1.71,1.71,0,0,0-1.22-.7,2.11,2.11,0,0,0-1.47.5,2.89,2.89,0,0,0-.9,1.42,1.66,1.66,0,0,0,1.46,2.17" transform="translate(-60.96 -22)"/><path class="cls-5" d="M220.22,71.37h0l14.13-2.51a2.76,2.76,0,0,0,2.18-2.59,1.81,1.81,0,0,0-2.15-1.86l-14.08,2.5a2.77,2.77,0,0,0-2.18,2.6,1.86,1.86,0,0,0,.63,1.45,1.57,1.57,0,0,0,1.47.41" transform="translate(-60.96 -22)"/><path class="cls-8" d="M170.9,89.78a1.62,1.62,0,0,1,1.95,1.68,2.5,2.5,0,0,1-2,2.36,1.64,1.64,0,0,1-2-1.69,2.49,2.49,0,0,1,2-2.35" transform="translate(-60.96 -22)"/><path class="cls-5" d="M177,92.73l.3,0a2.52,2.52,0,0,0,1.68-2.61,1.66,1.66,0,0,0-2.25-1.33A2.49,2.49,0,0,0,175,91.35a1.6,1.6,0,0,0,2,1.38" transform="translate(-60.96 -22)"/><path class="cls-5" d="M182.65,91.71a1.29,1.29,0,0,0,.44,0,2.3,2.3,0,0,0,1-.48,2.94,2.94,0,0,0,.89-1.42,1.9,1.9,0,0,0-.24-1.47,1.75,1.75,0,0,0-1.22-.7,2.11,2.11,0,0,0-1.47.5,2.84,2.84,0,0,0-.9,1.42,1.65,1.65,0,0,0,1.46,2.17" transform="translate(-60.96 -22)"/><path class="cls-5" d="M220.14,85.58h0l14.13-2.52a2.75,2.75,0,0,0,2.18-2.59,1.8,1.8,0,0,0-2.15-1.85l-14.08,2.5A2.76,2.76,0,0,0,218,83.71a1.91,1.91,0,0,0,.63,1.46,1.6,1.6,0,0,0,1.47.41" transform="translate(-60.96 -22)"/><path class="cls-5" d="M170.79,108.17a2.49,2.49,0,0,0,2-2.35,1.64,1.64,0,0,0-2-1.69,2.51,2.51,0,0,0-2,2.36,1.63,1.63,0,0,0,1.95,1.68" transform="translate(-60.96 -22)"/><path class="cls-5" d="M175.7,106.93a1.69,1.69,0,0,0,1.18.2l.29,0a2.22,2.22,0,0,0,1.28-1,2.25,2.25,0,0,0,.35-1.57,1.44,1.44,0,0,0-.78-1.18,1.75,1.75,0,0,0-1.46-.11,2.21,2.21,0,0,0-1.28,1,2.32,2.32,0,0,0-.36,1.57,1.65,1.65,0,0,0,.78,1.13" transform="translate(-60.96 -22)"/><path class="cls-5" d="M182.57,106.07a1.29,1.29,0,0,0,.44,0,2.22,2.22,0,0,0,1-.48,2.77,2.77,0,0,0,.89-1.41,1.7,1.7,0,0,0-1.45-2.18,2.43,2.43,0,0,0-2.37,1.92,1.9,1.9,0,0,0,.24,1.47,1.52,1.52,0,0,0,1.22.71" transform="translate(-60.96 -22)"/><path class="cls-5" d="M220.06,99.93h0l14.13-2.51a2.74,2.74,0,0,0,2.17-2.59A1.8,1.8,0,0,0,234.22,93l-14.09,2.5A2.76,2.76,0,0,0,218,98.06a1.88,1.88,0,0,0,.63,1.46,1.57,1.57,0,0,0,1.47.41" transform="translate(-60.96 -22)"/><path class="cls-5" d="M239.3,69.78,166.43,82.21l0-7.89L239.35,61.9l0,7.88ZM239.22,84,166.35,96.41l.05-7.89L239.26,76.1l0,7.89Zm-.08,14.45-72.87,12.42,0-8.08,72.86-12.42,0,8.08Zm-15.41,20.71c-1,1.28-1.14,1.45-1.68,1.55-.69.11-.83,0-2-1.23-1.31-1.4-3.45-3.81-7.48-3.12h-.05c-3.92.67-6.1,3.76-7.38,5.6-.15.17-.25.34-.35.46-1,1.28-1.13,1.45-1.67,1.55-.69.11-.84,0-2-1.24-1.31-1.39-3.46-3.8-7.48-3.11h-.05c-3.92.66-6.1,3.76-7.39,5.6a4.16,4.16,0,0,0-.34.46c-1,1.28-1.14,1.45-1.68,1.55s-.83,0-1.95-1.23a8.94,8.94,0,0,0-4.88-3.16v-7.68l50.25-8.56v8.23a15.84,15.84,0,0,0-3.55,3.94.71.71,0,0,0-.39.37m28.38-8.88a1.94,1.94,0,0,0-1.71-.46h-.05c-3.93.67-6.1,3.77-7.39,5.6-.15.18-.25.35-.34.46-1,1.29-1.19,1.42-1.73,1.57s-.83,0-1.95-1.24-3-3.28-6.11-3.25v-7.32l8.88-1.51a3,3,0,0,0,1.87-1.28,3.81,3.81,0,0,0,.75-2.2L244.57,58c0-1.67-1.16-2.88-2.59-2.64L163.86,68.66A2.94,2.94,0,0,0,162,69.93a4,4,0,0,0-.75,2.2L161,114.79c0,1.67,1.16,2.89,2.58,2.64l8.59-1.46v7.72a14,14,0,0,0-4.77,4.71l-.35.41c-1,1.28-1.14,1.45-1.68,1.55s-.83,0-2-1.23c-1.32-1.4-3.46-3.8-7.49-3.12a3.55,3.55,0,0,0-2.61,3.53c0,1.66,1.16,2.88,2.58,2.63,1.67-.28,2.59.67,3.62,1.86,1.31,1.44,2.77,3.06,5.82,2.54,2.79-.47,4.33-2.5,5.41-3.95.05-.05.1-.17.2-.24l.3-.35c1.18-1.71,2-2.77,3.59-3.09h0c1.67-.29,2.6.66,3.62,1.85,1.31,1.45,2.78,3.07,5.82,2.55,2.8-.48,4.32-2.51,5.41-4a1,1,0,0,1,.2-.24l.3-.36c1.18-1.71,2-2.76,3.59-3.08h0c1.67-.29,2.59.67,3.62,1.85,1.31,1.45,2.77,3.07,5.82,2.55,2.79-.48,4.33-2.5,5.41-3.95a1,1,0,0,1,.2-.24l.3-.35c1.18-1.72,2-2.77,3.59-3.09h.05c1.57-.27,2.4.5,3.62,1.86s2.78,3.06,5.77,2.55h.05c2.75-.46,4.28-2.49,5.37-3.94a.76.76,0,0,1,.19-.24l.3-.35c1.18-1.72,2-2.77,3.59-3.09h.05c1.57-.26,2.4.51,3.62,1.86s2.78,3.06,5.82,2.55h.05c2.79-.48,4.28-2.5,5.36-3.95.05-.05.1-.17.2-.24l.3-.35c1-1.49,2-2.81,3.64-3.09a3.5,3.5,0,0,0,2.62-3.48,7.38,7.38,0,0,0-1.31-2.25" transform="translate(-60.96 -22)"/><path class="cls-5" d="M157.32,63a2.15,2.15,0,0,0,2.45,1.35,2.54,2.54,0,0,0,.88-.3h0a3.55,3.55,0,0,0,1.48-1.67,2.78,2.78,0,0,0,.06-2.08l-2.46-6.4a2.11,2.11,0,0,0-1.37-1.28,2.59,2.59,0,0,0-2,.29,3.52,3.52,0,0,0-1.48,1.66,2.81,2.81,0,0,0-.06,2.09L157.32,63Z" transform="translate(-60.96 -22)"/><path class="cls-5" d="M154.68,78.85a3.25,3.25,0,0,0,1.55-3.74,2.13,2.13,0,0,0-1.37-1.28,2.58,2.58,0,0,0-2,.29l-6.59,3.7a3.5,3.5,0,0,0-1.48,1.67,2.78,2.78,0,0,0-.06,2.08,2.13,2.13,0,0,0,2.44,1.3,2.68,2.68,0,0,0,.88-.31l6.64-3.71Z" transform="translate(-60.96 -22)"/><path class="cls-5" d="M146.16,69.2l5.63,1.67a2.6,2.6,0,0,0,1.08,0,3.33,3.33,0,0,0,2.41-2,2.81,2.81,0,0,0,.06-2.09A2,2,0,0,0,154,65.59l-5.63-1.66a2.58,2.58,0,0,0-2,.29,3.19,3.19,0,0,0-1.43,1.66,2.65,2.65,0,0,0-.11,2,2.16,2.16,0,0,0,1.36,1.28" transform="translate(-60.96 -22)"/><polygon class="cls-7" points="106.32 174.51 106.37 170.14 120.92 167.75 120.86 172.12 117.09 173.48 116.97 183.91 131.3 181.55 131.42 171.12 127.67 171 127.72 166.63 142.26 164.24 142.21 168.6 138.44 169.97 138.14 195.9 141.9 196.03 141.85 200.37 127.31 202.77 127.35 198.42 131.13 197.06 131.24 187.13 116.91 189.49 116.8 199.42 120.55 199.54 120.5 203.88 105.96 206.28 106.01 201.94 109.76 200.58 110.05 174.64 106.32 174.51 106.32 174.51"/><path class="cls-7" d="M205.22,217.64l2.52-.79,11-33.17,7.21-1.19,10.26,29.67,2.5,0-.05,4.34-12,2,0-4.34,2.44-.85-1.49-4.71-11.38,1.88-1.6,5.22,2.43,0-.05,4.34-12,2,0-4.34Zm12.86-12.84,8.06-1.33-3.81-12.08-.15,0-4.1,13.39Z" transform="translate(-60.96 -22)"/><path class="cls-7" d="M270.06,187.4l-5.23.86-.67-4.7a5.91,5.91,0,0,0-2.6-1.25,9.62,9.62,0,0,0-3.72,0,10.06,10.06,0,0,0-7.09,4.59,17,17,0,0,0-2.57,9.34l0,1.26q-.06,5.52,2.36,8.56c1.61,2,3.92,2.8,6.91,2.3a12.39,12.39,0,0,0,3.8-1.24,8,8,0,0,0,2.69-2.13l.78-4.93,5.23-.86-.08,7.14a19.52,19.52,0,0,1-5.46,4.93A20.06,20.06,0,0,1,257,214q-7.06,1.17-11.52-3.13t-4.36-12.19v-1.21a21.92,21.92,0,0,1,4.64-13.67,18.06,18.06,0,0,1,11.66-7,16,16,0,0,1,7.33.31,12.46,12.46,0,0,1,5.39,3.14l-.09,7.15Z" transform="translate(-60.96 -22)"/><polygon class="cls-7" points="212.11 184.47 215.85 183.11 216.15 157.18 212.42 157.05 212.47 152.68 226.82 150.32 226.77 154.69 223.19 156.02 223.08 165.67 226.15 165.17 233.01 153.96 230.94 154 230.99 149.63 244.91 147.34 244.86 151.71 241.04 153.01 232.27 166.29 241.8 178.97 245.32 179.01 245.27 183.35 231.35 185.64 231.4 181.3 233.58 180.64 226.94 171.31 223.01 171.95 222.9 181.95 226.46 182.11 226.41 186.45 212.06 188.82 212.11 184.47 212.11 184.47"/><path class="cls-7" d="M308,200.72l2.51-.78,11.05-33.18,7.21-1.19L339,195.24l2.5,0,0,4.35-12,2,.05-4.35,2.44-.85-1.48-4.7-11.39,1.87-1.6,5.22,2.43,0-.05,4.35-12,2,0-4.34Zm12.86-12.84,8.05-1.33-3.81-12.08-.14,0-4.1,13.38Z" transform="translate(-60.96 -22)"/><polygon class="cls-7" points="314.18 135.94 314.07 145.57 308.67 146.46 308.42 142.46 301.96 143.53 301.67 168.99 305.42 169.12 305.37 173.46 290.81 175.86 290.86 171.51 294.63 170.15 294.92 144.69 288.48 145.75 288.14 149.84 282.76 150.72 282.87 141.09 314.18 135.94 314.18 135.94"/><polygon class="cls-7" points="316.42 139.93 316.47 135.56 331.01 133.17 330.96 137.54 327.19 138.9 327.07 149.33 341.4 146.97 341.52 136.54 337.77 136.42 337.81 132.05 352.36 129.66 352.31 134.03 348.54 135.39 348.24 161.32 352 161.45 351.95 165.79 337.4 168.19 337.45 163.84 341.22 162.48 341.34 152.55 327.01 154.91 326.9 164.84 330.65 164.96 330.6 169.31 316.06 171.7 316.11 167.36 319.85 166 320.15 140.06 316.42 139.93 316.42 139.93"/><path class="cls-7" d="M447.94,164.27a22.77,22.77,0,0,1-4.56,13.85,17.72,17.72,0,0,1-11.61,7.09q-7.12,1.17-11.44-3.3t-4.23-12.4V169a22.92,22.92,0,0,1,4.51-13.82,17.49,17.49,0,0,1,11.55-7.1c4.76-.79,8.59.32,11.5,3.3s4.34,7.12,4.28,12.38v.55Zm-7,.56c0-3.74-.68-6.66-2.16-8.74s-3.71-2.88-6.67-2.4a9,9,0,0,0-6.66,4.57,19.19,19.19,0,0,0-2.29,9.49v.6c0,3.8.65,6.75,2.1,8.83s3.64,2.88,6.58,2.4a9.22,9.22,0,0,0,6.74-4.59,18.85,18.85,0,0,0,2.35-9.57v-.59Z" transform="translate(-60.96 -22)"/><polygon class="cls-7" points="425.9 117.55 425.85 121.92 422.08 123.29 421.72 154.31 414.7 155.46 400.8 133.48 400.65 133.53 400.43 152.73 404.19 152.86 404.14 157.2 389.6 159.6 389.64 155.25 393.39 153.89 393.69 127.96 389.96 127.83 390.01 123.46 400.79 121.69 414.69 143.68 414.84 143.63 415.06 124.44 411.3 124.32 411.35 119.95 425.9 117.55 425.9 117.55"/></svg>