<svg xmlns="http://www.w3.org/2000/svg" width="58" height="58" viewBox="0 0 58 58">
  <g id="Groupe_2" data-name="Groupe 2" transform="translate(-248 -2624)">
    <circle id="Oval" cx="28" cy="28" r="28" transform="translate(249 2625)" fill="none" stroke="#e55615" stroke-miterlimit="10" stroke-width="2"/>
    <g id="Groupe_1" data-name="Groupe 1" transform="translate(-1652.691 2941.035)">
      <path id="Tracé_1" data-name="Tracé 1" d="M167.556,69.722h-5.48V67.837a.632.632,0,1,0-1.265,0v1.886H145.629V67.837a.632.632,0,1,0-1.264,0v1.886H138.89a1.7,1.7,0,0,0-1.686,1.7V97.127a1.7,1.7,0,0,0,1.686,1.7h28.666a1.7,1.7,0,0,0,1.686-1.7V71.421a1.7,1.7,0,0,0-1.686-1.7Zm-29.088,1.7A.428.428,0,0,1,138.89,71h5.475v2.36a.632.632,0,1,0,1.264,0V71h15.182v2.36a.632.632,0,1,0,1.264,0V71h5.48a.429.429,0,0,1,.422.425v4.634h-29.51Zm29.088,26.131H138.889a.429.429,0,0,1-.422-.425v-19.8h29.51v19.8a.429.429,0,0,1-.422.425Z" transform="translate(1776.469 -371.047)" fill="#e55615" stroke="#e55615" stroke-width="1"/>
      <path id="Tracé_2" data-name="Tracé 2" d="M286.506,257.58h-2.95a.637.637,0,0,0,0,1.274h2.95a.637.637,0,0,0,0-1.274Z" transform="translate(1641.718 -547.095)" fill="#e55615" stroke="#e55615" stroke-width="1"/>
      <path id="Tracé_3" data-name="Tracé 3" d="M364.9,257.58h-2.951a.637.637,0,0,0,0,1.274H364.9a.637.637,0,0,0,0-1.274Z" transform="translate(1569.23 -547.095)" fill="#e55615" stroke="#e55615" stroke-width="1"/>
      <path id="Tracé_4" data-name="Tracé 4" d="M443.3,257.58h-2.951a.637.637,0,0,0,0,1.274H443.3a.637.637,0,0,0,0-1.274Z" transform="translate(1496.732 -547.095)" fill="#e55615" stroke="#e55615" stroke-width="1"/>
      <path id="Tracé_5" data-name="Tracé 5" d="M286.506,307.98h-2.95a.637.637,0,0,0,0,1.274h2.95a.637.637,0,0,0,0-1.274Z" transform="translate(1641.718 -593.701)" fill="#e55615" stroke="#e55615" stroke-width="1"/>
      <path id="Tracé_6" data-name="Tracé 6" d="M364.9,307.98h-2.951a.637.637,0,0,0,0,1.274H364.9a.637.637,0,0,0,0-1.274Z" transform="translate(1569.23 -593.701)" fill="#e55615" stroke="#e55615" stroke-width="1"/>
      <path id="Tracé_7" data-name="Tracé 7" d="M443.3,307.98h-2.951a.637.637,0,0,0,0,1.274H443.3a.637.637,0,0,0,0-1.274Z" transform="translate(1496.732 -593.701)" fill="#e55615" stroke="#e55615" stroke-width="1"/>
      <path id="Tracé_8" data-name="Tracé 8" d="M202.506,307.98h-2.951a.637.637,0,0,0,0,1.274h2.951a.637.637,0,0,0,0-1.274Z" transform="translate(1719.396 -593.701)" fill="#e55615" stroke="#e55615" stroke-width="1"/>
      <path id="Tracé_9" data-name="Tracé 9" d="M286.506,358.38h-2.95a.637.637,0,0,0,0,1.274h2.95a.637.637,0,0,0,0-1.274Z" transform="translate(1641.718 -640.307)" fill="#e55615" stroke="#e55615" stroke-width="1"/>
      <path id="Tracé_10" data-name="Tracé 10" d="M364.9,358.38h-2.951a.637.637,0,0,0,0,1.274H364.9a.637.637,0,0,0,0-1.274Z" transform="translate(1569.23 -640.307)" fill="#e55615" stroke="#e55615" stroke-width="1"/>
      <path id="Tracé_11" data-name="Tracé 11" d="M443.3,358.38h-2.951a.637.637,0,0,0,0,1.274H443.3a.637.637,0,0,0,0-1.274Z" transform="translate(1496.732 -640.307)" fill="#e55615" stroke="#e55615" stroke-width="1"/>
      <path id="Tracé_12" data-name="Tracé 12" d="M202.506,358.38h-2.951a.637.637,0,0,0,0,1.274h2.951a.637.637,0,0,0,0-1.274Z" transform="translate(1719.396 -640.307)" fill="#e55615" stroke="#e55615" stroke-width="1"/>
      <path id="Tracé_13" data-name="Tracé 13" d="M202.506,408.78h-2.951a.637.637,0,0,0,0,1.274h2.951a.637.637,0,0,0,0-1.274Z" transform="translate(1719.396 -686.913)" fill="#e55615" stroke="#e55615" stroke-width="1"/>
      <path id="Tracé_14" data-name="Tracé 14" d="M280.906,408.78h-2.95a.637.637,0,0,0,0,1.274h2.95a.637.637,0,0,0,0-1.274Z" transform="translate(1646.896 -686.913)" fill="#e55615" stroke="#e55615" stroke-width="1"/>
      <path id="Tracé_15" data-name="Tracé 15" d="M359.3,408.78h-2.951a.637.637,0,0,0,0,1.274H359.3a.637.637,0,0,0,0-1.274Z" transform="translate(1574.409 -686.913)" fill="#e55615" stroke="#e55615" stroke-width="1"/>
    </g>
  </g>
</svg>
