<svg xmlns="http://www.w3.org/2000/svg" width="58" height="58" viewBox="0 0 58 58">
  <g id="Groupe_4" data-name="Groupe 4" transform="translate(-841 -2624)">
    <circle id="Oval" cx="28" cy="28" r="28" transform="translate(842 2625)" fill="none" stroke="#e55615" stroke-miterlimit="10" stroke-width="2"/>
    <g id="Groupe_3" data-name="Groupe 3" transform="translate(-884.369 2421.992)">
      <path id="Tracé_16" data-name="Tracé 16" d="M233.964,103.8a1.067,1.067,0,0,0,.111-.313,12.047,12.047,0,0,0,.954-4.773,13.132,13.132,0,0,0-26.258,0,12.048,12.048,0,0,0,.954,4.773,1.056,1.056,0,0,0,.111.313l.228.4q.191.374.414.732l10.5,18.638h0a1.061,1.061,0,0,0,1.846,0l10.5-18.638c.143-.239.286-.483.414-.732ZM221.9,87.706a11.021,11.021,0,0,1,11.011,11.011,9.665,9.665,0,0,1-1.114,4.561h.032L221.9,120.885l-9.923-17.608h.032a9.666,9.666,0,0,1-1.114-4.561,11.021,11.021,0,0,1,11-11.011Z" transform="translate(1532.469 126.953)" fill="#e55615"/>
      <path id="Tracé_17" data-name="Tracé 17" d="M290.037,158.385a6.364,6.364,0,1,0-3.516,1.061,6.365,6.365,0,0,0,3.516-1.061ZM286.52,148.8a4.243,4.243,0,1,1-3,1.243A4.243,4.243,0,0,1,286.52,148.8Z" transform="translate(1467.846 71.844)" fill="#e55615"/>
    </g>
  </g>
</svg>
