<?xml version="1.0" encoding="UTF-8"?>
<svg width="22px" height="17px" viewBox="0 0 22 17" version="1.1" xmlns="http://www.w3.org/2000/svg" xmlns:xlink="http://www.w3.org/1999/xlink">
    <title>Icon/social/reseau/linkedin Copy 3</title>
    <defs>
        <path d="M22,2.09472325 C20.882,2.47272325 19.765,2.59972325 19.765,2.59972325 C21.285,1.42072325 21.285,0.365723248 21.285,0.365723248 C19.854,1.25072325 18.423,1.33572325 18.423,1.33572325 C17.35,0.113723248 14.979,-0.603276752 12.693,0.674723248 C10.407,1.94972325 10.732,5.21372325 10.732,5.21372325 C4.785,5.08672325 1.341,0.829723248 1.341,0.829723248 C-0.492,4.45472325 2.654,6.60472325 2.654,6.60472325 C1.822,6.60472325 0.671,6.19172325 0.671,6.19172325 C0.715,9.57072325 4.382,10.4407232 4.382,10.4407232 C3.577,10.4827232 2.414,10.4407232 2.414,10.4407232 C3.131,13.1377232 6.463,13.3127232 6.463,13.3127232 C4.607,14.6667232 3.265,15.0777232 0,15.0687232 C1.923,16.8317232 6.528,17.2267232 9.167,16.8897232 C11.805,16.5527232 15.293,14.9507232 17.752,11.4797232 C20.212,8.00872325 19.81,4.24372325 19.81,4.24372325 C21.419,3.19072325 22,2.09472325 22,2.09472325" id="path-1"></path>
    </defs>
    <g id="FONCTIONNEL" stroke="none" stroke-width="1" fill="none" fill-rule="evenodd">
        <g id="PICTOS" transform="translate(-470.000000, -66.000000)">
            <g id="Color/grey/black-100-Copy-4" transform="translate(470.000000, 66.000000)">
                <mask id="mask-2" fill="white">
                    <use xlink:href="#path-1"></use>
                </mask>
                <use id="Mask" fill="#000000" xlink:href="#path-1"></use>
                <g mask="url(#mask-2)" fill="#000000" id="Rectangle-Copy-3">
                    <g transform="translate(-1.000000, -4.000000)">
                        <rect x="0" y="0" width="24" height="24"></rect>
                    </g>
                </g>
            </g>
        </g>
    </g>
</svg>